<?xml version="1.0" encoding="utf-8"?>
<!-- Generator: Adobe Illustrator 24.1.1, SVG Export Plug-In . SVG Version: 6.00 Build 0)  -->
<svg version="1.1" id="Livello_1" xmlns="http://www.w3.org/2000/svg" xmlns:xlink="http://www.w3.org/1999/xlink" x="0px" y="0px"
	 viewBox="0 0 595.3 841.9" style="enable-background:new 0 0 595.3 841.9;" xml:space="preserve">
<style type="text/css">
	.st0{fill:#020214;}
	.st1{fill:#B2B2B2;}
	.st2{fill:#7E7F7F;}
	.st3{fill:#00FF00;}
	.st4{fill:#00FFFF;}
	.st5{fill:#A0A0A0;}
	.st6{fill:#006837;}
	.st7{fill:#FFFFFF;}
	.st8{fill:#2B2B2B;}
	.st9{fill:#FBB03B;}
	.st10{fill:#F15A24;}
	.st11{fill:#FF8F8F;}
	.st12{fill:#0000FF;}
	.st13{font-family:'Gotham-Medium';}
	.st14{font-size:20px;}
</style>
<rect x="0" y="0" class="st0" width="595.3" height="841.9"/>
<path class="st1" d="M216,621.6l47.6,15.8c0.5,0.2,0.8,0.7,0.6,1.2c-9,24.5-35.9,37.7-60.8,29.4c-0.8-0.3-1.6-0.6-2.4-0.9
	c-0.5-0.2-0.7-0.7-0.5-1.2l14.5-43.7C215,621.7,215.5,621.5,216,621.6z"/>
<path class="st2" d="M390.3,558c0.5,0.2,0.7,0.7,0.6,1.1c-21.4,63.1-89.7,97.1-153,76.2l0,0c-63.3-21-97.8-89.1-77.3-152.5
	c0.1-0.5,0.6-0.7,1.1-0.6L390.3,558z"/>
<circle class="st3" cx="341.5" cy="566.6" r="10"/>
<circle class="st4" cx="330.5" cy="599.8" r="6.6"/>
<path class="st0" d="M437.2,373.2L378,552.2l-201.5-66.8l59.3-178.9c18.4-55.6,78.5-85.8,134.1-67.4c27.8,9.2,49.3,28.8,61.5,53.1
	C443.5,316.5,446.5,345.4,437.2,373.2z"/>
<polygon class="st5" points="369.4,353.7 354,368.2 350.2,362.5 "/>
<polygon class="st5" points="383.7,383.8 363.1,388.6 362.6,381.8 "/>
<polygon class="st5" points="301.8,331.3 305.4,352.1 311.9,349.9 "/>
<polygon class="st5" points="272.3,346.9 286,363.1 290.4,357.9 "/>
<g>
	<path class="st3" d="M305.1,348.9c-4.3,3.7-7.7,8.5-9.6,14.2l-48.8,147.3l-13.9-4.6l42.1-127.1
		C279.7,363.9,291.3,353.2,305.1,348.9z"/>
	<path class="st3" d="M363.4,408l-42.1,127.1l-13.9-4.6l48.8-147.3c1.9-5.7,2-11.6,0.8-17.2C365.4,377.8,368.3,393.3,363.4,408z"/>
	<path class="st3" d="M352.6,382l-48.8,147.3l-25-8.3l56.8-171.3c5.2,2,9.9,4.8,13.9,8.2C354,364.8,355.4,373.6,352.6,382z"/>
	<path class="st3" d="M332,348.5l-56.8,171.3l-25-8.3L299,364.3c2.8-8.4,9.2-14.6,16.9-17.5C321.2,346.4,326.6,347,332,348.5z"/>
	<path class="st6" d="M315.9,346.8c-7.7,2.9-14.1,9.1-16.9,17.5l-48.8,147.3l-3.6-1.2l48.8-147.3c1.9-5.7,5.3-10.6,9.6-14.2
		C308.5,347.7,312.2,347,315.9,346.8z"/>
	<path class="st6" d="M356.2,383.2l-48.8,147.3l-3.6-1.2L352.6,382c2.8-8.4,1.3-17.2-3.1-24.1c2.8,2.4,5.3,5.2,7.5,8.2
		C358.2,371.6,358.1,377.5,356.2,383.2z"/>
	<path class="st6" d="M335.6,349.7L278.8,521l-3.6-1.2L332,348.5c0.6,0.2,1.2,0.4,1.8,0.6C334.4,349.2,335,349.5,335.6,349.7z"/>
</g>
<polygon class="st5" points="222,471.7 240.7,481.6 242.9,475 "/>
<polygon class="st5" points="229.3,449.7 248,459.5 250.2,453 "/>
<polygon class="st5" points="235.5,430.9 254.3,440.7 256.4,434.2 "/>
<polygon class="st5" points="241,414.4 259.7,424.3 261.9,417.7 "/>
<polygon class="st5" points="248.3,392.4 267,402.2 269.2,395.7 "/>
<polygon class="st5" points="254.5,373.6 273.2,383.4 275.4,376.9 "/>
<polygon class="st5" points="349.6,514 328.7,510.7 330.8,504.2 "/>
<polygon class="st5" points="356.9,492 336,488.6 338.1,482.1 "/>
<polygon class="st5" points="363.1,473.2 342.2,469.9 344.4,463.3 "/>
<polygon class="st5" points="368.5,456.7 347.7,453.4 349.8,446.9 "/>
<polygon class="st5" points="375.8,434.7 355,431.4 357.1,424.8 "/>
<polygon class="st5" points="382.1,415.9 361.2,412.6 363.3,406.1 "/>
<polygon class="st5" points="340.4,329.2 330.5,348 337.1,350.1 "/>
<path class="st1" d="M431.3,293.5c-12.3-24.1-33.8-43.5-61.6-52.8c-35.8-11.8-73.3-3.8-100.3,18c-0.8,0.6-1.4,1.5-1.7,2.4L191.2,492
	l6.8,2.2l77-232.3L433,314.3l-77,232.3l6.8,2.2L439.3,318c0.3-1,0.4-2,0.1-3C437.5,307.6,434.8,300.4,431.3,293.5z"/>
<path class="st7" d="M406.9,351.3L406.9,351.3c-1.7-0.6-2.6-2.4-2.1-4.1l9-27c0.6-1.7,2.4-2.6,4.1-2.1l0,0c1.7,0.6,2.6,2.4,2.1,4.1
	l-9,27C410.4,350.9,408.6,351.8,406.9,351.3z"/>
<path class="st7" d="M400.3,371.1L400.3,371.1c-1.7-0.6-2.6-2.4-2.1-4.1l1.2-3.8c0.6-1.7,2.4-2.6,4.1-2.1l0,0
	c1.7,0.6,2.6,2.4,2.1,4.1l-1.2,3.8C403.9,370.7,402,371.6,400.3,371.1z"/>
<path class="st8" d="M262.7,590.7l-19.8-6.6c-2-0.7-3-2.8-2.4-4.7l0,0c0.7-2,2.8-3,4.7-2.4l19.8,6.6c2,0.7,3,2.8,2.4,4.7l0,0
	C266.8,590.3,264.7,591.3,262.7,590.7z"/>
<path class="st8" d="M281.1,580.3l-19.8-6.6c-2-0.7-3-2.8-2.4-4.7l0,0c0.7-2,2.8-3,4.7-2.4l19.8,6.6c2,0.7,3,2.8,2.4,4.7l0,0
	C285.2,579.9,283,581,281.1,580.3z"/>
<path class="st9" d="M572.5,140.7l-31.3,2.8c-4.5,0.4-8.6-2.8-9.1-7.3c-0.2-2.3,0.5-4.4,1.9-6.1c1.1-1.3,2.6-2.3,4.3-2.7l15.2-1.4
	l2.6-0.2c0.4,0,0.9-0.1,1.3-0.2c1.7-0.4,3.2-1.4,4.3-2.7c1.4-1.6,2.1-3.8,1.9-6.1c-0.5-4.5-4.6-7.7-9.1-7.3l-61.7,5.6l-28.3,2.6
	l-70.5,6.4c-13.5,1.2-23.4,13.1-22.2,26.6v0c1.2,13.5,13.1,23.4,26.6,22.2l85.5-7.7l13.3-1.2l76.9-7c2.3-0.2,4.2-1.3,5.6-2.9
	c1.3-1.6,2.1-3.7,1.9-6C581,143.6,577,140.3,572.5,140.7z"/>
<circle class="st10" cx="399.1" cy="148.2" r="17"/>
<path class="st11" d="M159.1,788.1c0,19.4-4.7,37.7-13.1,53.8H0.3V679c13-5,27.2-7.8,41.9-7.8C106.8,671.2,159.1,723.5,159.1,788.1z
	"/>
<path class="st4" d="M595.6,199v49.3l-1.6,0.2l-85.5,7.7c-0.8,0.1-1.5,0.1-2.2,0.1c-12.5,0-23.2-9.6-24.4-22.3
	c-1.2-13.5,8.7-25.4,22.2-26.6l70.5-6.4L595.6,199z"/>
<circle class="st12" cx="509.3" cy="231.5" r="17"/>
<g>
	<g>
		<path class="st7" d="M335.6,809.6c1.9,0,1.9-3,0-3C333.7,806.6,333.7,809.6,335.6,809.6L335.6,809.6z"/>
	</g>
</g>
<g>
	<g>
		<path class="st7" d="M526.1,474.7c1.9,0,1.9-3,0-3C524.2,471.7,524.2,474.7,526.1,474.7L526.1,474.7z"/>
	</g>
</g>
<g>
	<g>
		<path class="st7" d="M474,688.3c1.9,0,1.9-3,0-3C472,685.3,472,688.3,474,688.3L474,688.3z"/>
	</g>
</g>
<g>
	<g>
		<path class="st7" d="M77.2,318.2c1.9,0,1.9-3,0-3C75.2,315.2,75.2,318.2,77.2,318.2L77.2,318.2z"/>
	</g>
</g>
<g>
	<g>
		<path class="st7" d="M38.3,454.1c1.9,0,1.9-3,0-3C36.4,451.1,36.4,454.1,38.3,454.1L38.3,454.1z"/>
	</g>
</g>
<g>
	<g>
		<path class="st7" d="M261.6,764.7c1.9,0,1.9-3,0-3C259.7,761.7,259.7,764.7,261.6,764.7L261.6,764.7z"/>
	</g>
</g>
<g>
	<g>
		<path class="st7" d="M533.4,299.9c1.9,0,1.9-3,0-3C531.5,296.9,531.5,299.9,533.4,299.9L533.4,299.9z"/>
	</g>
</g>
<g>
	<g>
		<path class="st7" d="M449.7,206.5c1.9,0,1.9-3,0-3C447.8,203.5,447.8,206.5,449.7,206.5L449.7,206.5z"/>
	</g>
</g>
<g>
	<g>
		<path class="st7" d="M158.5,289c1.9,0,1.9-3,0-3C156.5,286,156.5,289,158.5,289L158.5,289z"/>
	</g>
</g>
<g>
	<g>
		<path class="st7" d="M477.6,454.1c1.9,0,1.9-3,0-3C475.7,451.1,475.7,454.1,477.6,454.1L477.6,454.1z"/>
	</g>
</g>
<g>
	<g>
		<path class="st7" d="M353.8,315.7c1.9,0,1.9-3,0-3C351.9,312.7,351.9,315.7,353.8,315.7L353.8,315.7z"/>
	</g>
</g>
<g>
	<g>
		<path class="st7" d="M221.6,492.9c1.9,0,1.9-3,0-3C219.6,489.9,219.6,492.9,221.6,492.9L221.6,492.9z"/>
	</g>
</g>
<g>
	<g>
		<path class="st7" d="M279.8,292.7c1.9,0,1.9-3,0-3C277.9,289.7,277.9,292.7,279.8,292.7L279.8,292.7z"/>
	</g>
</g>
<g>
	<g>
		<path class="st7" d="M347.8,529.3c1.9,0,1.9-3,0-3C345.8,526.3,345.8,529.3,347.8,529.3L347.8,529.3z"/>
	</g>
</g>
<g>
	<g>
		<path class="st7" d="M379.3,445.6c1.9,0,1.9-3,0-3C377.4,442.6,377.4,445.6,379.3,445.6L379.3,445.6z"/>
	</g>
</g>
<g>
	<g>
		<path class="st7" d="M57.7,556c1.9,0,1.9-3,0-3C55.8,553,55.8,556,57.7,556L57.7,556z"/>
	</g>
</g>
<g>
	<g>
		<path class="st7" d="M273.7,202.9c1.9,0,1.9-3,0-3C271.8,199.9,271.8,202.9,273.7,202.9L273.7,202.9z"/>
	</g>
</g>
<g>
	<g>
		<path class="st7" d="M131.8,388.5c1.9,0,1.9-3,0-3C129.8,385.5,129.8,388.5,131.8,388.5L131.8,388.5z"/>
	</g>
</g>
<g>
	<g>
		<path class="st7" d="M495.8,581.5c1.9,0,1.9-3,0-3C493.9,578.5,493.9,581.5,495.8,581.5L495.8,581.5z"/>
	</g>
</g>
<g>
	<g>
		<path class="st7" d="M586.8,607c1.9,0,1.9-3,0-3C584.9,604,584.9,607,586.8,607L586.8,607z"/>
	</g>
</g>
<g>
	<g>
		<path class="st7" d="M522.5,391c1.9,0,1.9-3,0-3C520.6,388,520.6,391,522.5,391L522.5,391z"/>
	</g>
</g>
<g>
	<g>
		<path class="st7" d="M543.1,191.9c1.9,0,1.9-3,0-3C541.2,188.9,541.2,191.9,543.1,191.9L543.1,191.9z"/>
	</g>
</g>
<g>
	<g>
		<path class="st7" d="M470.3,51.2c1.9,0,1.9-3,0-3C468.4,48.2,468.4,51.2,470.3,51.2L470.3,51.2z"/>
	</g>
</g>
<g>
	<g>
		<path class="st7" d="M401.2,43.9c1.9,0,1.9-3,0-3C399.2,40.9,399.2,43.9,401.2,43.9L401.2,43.9z"/>
	</g>
</g>
<g>
	<g>
		<path class="st7" d="M523.7,29.3c1.9,0,1.9-3,0-3C521.8,26.3,521.8,29.3,523.7,29.3L523.7,29.3z"/>
	</g>
</g>
<g>
	<g>
		<path class="st7" d="M370.8,183.5c1.9,0,1.9-3,0-3C368.9,180.5,368.9,183.5,370.8,183.5L370.8,183.5z"/>
	</g>
</g>
<g>
	<g>
		<path class="st7" d="M102.6,579.1c1.9,0,1.9-3,0-3C100.7,576.1,100.7,579.1,102.6,579.1L102.6,579.1z"/>
	</g>
</g>
<g>
	<g>
		<path class="st7" d="M100.2,455.3c1.9,0,1.9-3,0-3C98.3,452.3,98.3,455.3,100.2,455.3L100.2,455.3z"/>
	</g>
</g>
<g>
	<g>
		<path class="st7" d="M163.3,719.8c1.9,0,1.9-3,0-3C161.4,716.8,161.4,719.8,163.3,719.8L163.3,719.8z"/>
	</g>
</g>
<g>
	<g>
		<path class="st7" d="M311.4,712.5c1.9,0,1.9-3,0-3C309.4,709.5,309.4,712.5,311.4,712.5L311.4,712.5z"/>
	</g>
</g>
<g>
	<g>
		<path class="st7" d="M251.9,819.3c1.9,0,1.9-3,0-3C250,816.3,250,819.3,251.9,819.3L251.9,819.3z"/>
	</g>
</g>
<g>
	<g>
		<path class="st7" d="M361.1,630c1.9,0,1.9-3,0-3C359.2,627,359.2,630,361.1,630L361.1,630z"/>
	</g>
</g>
<g>
	<g>
		<path class="st7" d="M72.3,615.5c1.9,0,1.9-3,0-3C70.4,612.5,70.4,615.5,72.3,615.5L72.3,615.5z"/>
	</g>
</g>
<g>
	<g>
		<path class="st7" d="M425.4,514.7c1.9,0,1.9-3,0-3C423.5,511.7,423.5,514.7,425.4,514.7L425.4,514.7z"/>
	</g>
</g>
<g>
	<g>
		<path class="st7" d="M414.5,463.8c1.9,0,1.9-3,0-3C412.6,460.8,412.6,463.8,414.5,463.8L414.5,463.8z"/>
	</g>
</g>
<g>
	<g>
		<path class="st7" d="M230.1,353.3c1.9,0,1.9-3,0-3C228.1,350.3,228.1,353.3,230.1,353.3L230.1,353.3z"/>
	</g>
</g>
<g>
	<g>
		<path class="st7" d="M99,346.1c1.9,0,1.9-3,0-3C97.1,343.1,97.1,346.1,99,346.1L99,346.1z"/>
	</g>
</g>
<g>
	<g>
		<path class="st7" d="M153.6,200.4c1.9,0,1.9-3,0-3C151.7,197.4,151.7,200.4,153.6,200.4L153.6,200.4z"/>
	</g>
</g>
<g>
	<g>
		<path class="st7" d="M12.8,225.9c1.9,0,1.9-3,0-3C10.9,222.9,10.9,225.9,12.8,225.9L12.8,225.9z"/>
	</g>
</g>
<g>
	<g>
		<path class="st7" d="M440,239.3c1.9,0,1.9-3,0-3C438.1,236.3,438.1,239.3,440,239.3L440,239.3z"/>
	</g>
</g>
<g>
	<g>
		<path class="st7" d="M571,460.1c1.9,0,1.9-3,0-3C569.1,457.1,569.1,460.1,571,460.1L571,460.1z"/>
	</g>
</g>
<g>
	<g>
		<path class="st7" d="M566.2,569.3c1.9,0,1.9-3,0-3C564.3,566.3,564.3,569.3,566.2,569.3L566.2,569.3z"/>
	</g>
</g>
<g>
	<g>
		<path class="st7" d="M543.1,712.5c1.9,0,1.9-3,0-3C541.2,709.5,541.2,712.5,543.1,712.5L543.1,712.5z"/>
	</g>
</g>
<g>
	<g>
		<path class="st7" d="M384.2,341.2c1.9,0,1.9-3,0-3C382.2,338.2,382.2,341.2,384.2,341.2L384.2,341.2z"/>
	</g>
</g>
<g>
	<g>
		<path class="st7" d="M316.2,319.4c1.9,0,1.9-3,0-3C314.3,316.4,314.3,319.4,316.2,319.4L316.2,319.4z"/>
	</g>
</g>
<g>
	<g>
		<path class="st7" d="M127.2,169.5v-4.6l11.5-12.4c0.9-1,1.7-1.9,2.3-2.7c0.6-0.8,1.1-1.5,1.5-2.2c0.4-0.7,0.6-1.3,0.8-1.8
			c0.2-0.6,0.3-1.1,0.3-1.7c0-0.8-0.1-1.5-0.3-2.1c-0.2-0.6-0.5-1.1-1-1.6c-0.4-0.4-0.9-0.7-1.5-1c-0.6-0.2-1.2-0.3-1.9-0.3
			c-0.9,0-1.7,0.1-2.4,0.4c-0.7,0.3-1.3,0.6-1.7,1.1c-0.5,0.5-0.8,1.1-1.1,1.9c-0.2,0.7-0.4,1.6-0.4,2.6h-6.8c0-1.6,0.3-3.1,0.9-4.5
			c0.6-1.4,1.5-2.6,2.6-3.7c1.1-1.1,2.4-1.9,4-2.5c1.6-0.6,3.3-0.9,5.2-0.9c1.8,0,3.4,0.3,4.8,0.8c1.4,0.5,2.6,1.2,3.5,2.1
			c0.9,0.9,1.6,2,2.1,3.3c0.5,1.3,0.7,2.7,0.7,4.2c0,1.2-0.2,2.3-0.5,3.4c-0.4,1.1-0.9,2.1-1.6,3.2c-0.7,1-1.5,2.1-2.4,3.2
			c-0.9,1.1-2,2.2-3.1,3.4l-6.7,7.1h15.6v5.4H127.2z"/>
		<path class="st7" d="M180.6,162.1c-0.5,1.8-1.3,3.2-2.3,4.4c-1,1.2-2.2,2.1-3.6,2.7c-1.4,0.6-3,0.9-4.8,0.9
			c-1.8,0-3.4-0.3-4.8-0.9c-1.4-0.6-2.6-1.5-3.6-2.7c-1-1.2-1.8-2.6-2.3-4.4c-0.5-1.7-0.8-3.8-0.8-6.1v-8.5c0-2.3,0.3-4.3,0.8-6.1
			c0.5-1.7,1.3-3.2,2.3-4.4c1-1.2,2.2-2.1,3.6-2.7c1.4-0.6,3-0.9,4.8-0.9c1.8,0,3.4,0.3,4.8,0.9c1.4,0.6,2.7,1.5,3.7,2.7
			c1,1.2,1.8,2.7,2.3,4.4c0.5,1.8,0.8,3.8,0.8,6.1v8.5C181.3,158.3,181.1,160.3,180.6,162.1z M174.5,146c0-1.3-0.2-2.5-0.4-3.4
			c-0.3-1-0.6-1.7-1.1-2.3c-0.4-0.5-0.8-0.8-1.4-1c-0.5-0.2-1.2-0.3-1.8-0.3c-0.8,0-1.4,0.1-2,0.4c-0.6,0.3-1.1,0.7-1.5,1.3
			c-0.4,0.6-0.7,1.4-0.9,2.3c-0.2,1-0.3,2.1-0.3,3.4v3.9c0,0.8,0,1.3,0,1.6c0,0.3,0,0.6,0,1.1L174.5,146z M174.5,152.9
			c0-0.5,0-0.9,0-1.2c0-0.3,0-0.6,0-1.1l-9.5,7c0,1.1,0.1,2,0.3,2.9c0.2,0.8,0.5,1.5,0.8,2.1c0.4,0.7,0.9,1.2,1.5,1.5
			c0.6,0.3,1.3,0.5,2.1,0.5c0.8,0,1.4-0.1,2-0.4c0.6-0.3,1.1-0.7,1.5-1.3c0.4-0.6,0.7-1.4,0.9-2.4c0.2-1,0.3-2.1,0.3-3.4V152.9z"/>
		<path class="st7" d="M187.2,169.5v-4.6l11.5-12.4c0.9-1,1.7-1.9,2.3-2.7c0.6-0.8,1.1-1.5,1.5-2.2c0.4-0.7,0.6-1.3,0.8-1.8
			c0.2-0.6,0.3-1.1,0.3-1.7c0-0.8-0.1-1.5-0.3-2.1c-0.2-0.6-0.5-1.1-1-1.6c-0.4-0.4-0.9-0.7-1.5-1c-0.6-0.2-1.2-0.3-1.9-0.3
			c-0.9,0-1.7,0.1-2.4,0.4c-0.7,0.3-1.3,0.6-1.7,1.1c-0.5,0.5-0.8,1.1-1.1,1.9c-0.2,0.7-0.4,1.6-0.4,2.6h-6.8c0-1.6,0.3-3.1,0.9-4.5
			c0.6-1.4,1.5-2.6,2.6-3.7c1.1-1.1,2.4-1.9,4-2.5c1.6-0.6,3.3-0.9,5.2-0.9c1.8,0,3.4,0.3,4.8,0.8c1.4,0.5,2.6,1.2,3.5,2.1
			c0.9,0.9,1.6,2,2.1,3.3c0.5,1.3,0.7,2.7,0.7,4.2c0,1.2-0.2,2.3-0.5,3.4c-0.4,1.1-0.9,2.1-1.6,3.2c-0.7,1-1.5,2.1-2.4,3.2
			c-0.9,1.1-2,2.2-3.1,3.4l-6.7,7.1h15.6v5.4H187.2z"/>
		<path class="st7" d="M242.2,156.3v5.5H238v7.7h-6.8v-7.7h-14.8l-0.3-4.2l14.9-23.6h6.9v22.3H242.2z M231.2,156.3v-13.2l-0.7,1.2
			l-7.7,12H231.2z"/>
	</g>
</g>
<g>
	<g>
		<path class="st7" d="M130.6,84.7l-1.5,4.9h-3.7l6.9-21.3h3.1l6.8,21.3h-3.6l-1.4-4.9H130.6z M136.4,81.7l-2.4-8.4l-2.5,8.4H136.4z
			"/>
		<path class="st7" d="M145,78.3c0.3-1,0.7-1.8,1.3-2.6s1.2-1.3,2-1.7s1.7-0.6,2.7-0.6c0.6,0,1.1,0.1,1.6,0.2s0.9,0.3,1.3,0.5
			c0.3,0.1,0.5,0.3,0.7,0.5s0.4,0.4,0.6,0.7l0.1-1.6h3.2v15.4c0,1.1-0.2,2-0.5,2.8s-0.8,1.5-1.5,2.1c-0.6,0.6-1.4,1-2.3,1.3
			s-1.9,0.4-2.9,0.4c-0.4,0-0.9,0-1.5-0.1s-1.1-0.2-1.6-0.5s-1-0.5-1.5-0.8s-0.9-0.7-1.3-1.2l1.7-2.1c0.3,0.3,0.6,0.6,0.9,0.9
			s0.7,0.5,1,0.6s0.7,0.3,1,0.3s0.7,0.1,1.1,0.1c0.6,0,1.2-0.1,1.7-0.3s0.9-0.4,1.2-0.8c0.3-0.3,0.6-0.7,0.7-1.2s0.3-1,0.3-1.6v-1.1
			c-0.2,0.2-0.4,0.4-0.6,0.6s-0.5,0.3-0.7,0.5c-0.4,0.2-0.8,0.4-1.3,0.5s-1,0.2-1.5,0.2c-1,0-1.9-0.2-2.6-0.6s-1.5-1-2-1.7
			c-0.5-0.7-1-1.6-1.3-2.5s-0.4-2-0.4-3.2v-0.3C144.6,80.4,144.7,79.3,145,78.3z M148.3,83.9c0.1,0.6,0.4,1.2,0.7,1.6
			c0.3,0.5,0.7,0.9,1.2,1.1s1,0.4,1.7,0.4c0.4,0,0.8,0,1.1-0.1s0.6-0.2,0.9-0.4c0.3-0.2,0.5-0.4,0.7-0.6s0.4-0.5,0.5-0.8v-6.9
			c-0.2-0.3-0.3-0.6-0.6-0.8s-0.5-0.4-0.8-0.6c-0.3-0.1-0.5-0.2-0.8-0.3s-0.7-0.1-1-0.1c-0.7,0-1.2,0.1-1.7,0.4s-0.9,0.6-1.2,1.1
			c-0.3,0.5-0.5,1-0.7,1.7s-0.2,1.3-0.2,2v0.3C148.1,82.6,148.2,83.3,148.3,83.9z"/>
		<path class="st7" d="M167.2,89.3c-1-0.4-1.8-0.9-2.5-1.6c-0.7-0.7-1.2-1.5-1.6-2.4s-0.6-1.9-0.6-3v-0.6c0-1.2,0.2-2.4,0.6-3.4
			s0.9-1.9,1.6-2.6s1.5-1.3,2.4-1.6s1.9-0.6,2.9-0.6c1.1,0,2.2,0.2,3,0.6s1.6,0.9,2.2,1.6c0.6,0.7,1,1.5,1.3,2.5s0.5,2,0.5,3.1v1.5
			h-11v0.1c0.1,0.7,0.3,1.3,0.5,1.7s0.5,0.9,0.9,1.3c0.4,0.4,0.9,0.7,1.4,0.9s1.1,0.3,1.8,0.3c0.9,0,1.7-0.2,2.4-0.5
			s1.4-0.8,1.9-1.4l1.9,1.8c-0.5,0.8-1.3,1.4-2.4,2.1s-2.4,0.9-3.9,0.9C169.3,89.9,168.2,89.7,167.2,89.3z M168.6,76.6
			c-0.4,0.2-0.8,0.4-1.1,0.8c-0.3,0.3-0.6,0.8-0.8,1.2s-0.4,1-0.5,1.6h7.5V80c0-0.5-0.1-0.9-0.2-1.4s-0.4-0.9-0.7-1.2
			c-0.3-0.3-0.7-0.6-1.1-0.8s-1-0.3-1.5-0.3C169.5,76.3,169,76.4,168.6,76.6z"/>
		<path class="st7" d="M181,73.8h3.2l0.2,2.3c0.2-0.3,0.5-0.6,0.7-0.8s0.5-0.5,0.8-0.7c0.5-0.3,1-0.6,1.5-0.7s1.1-0.3,1.8-0.3
			c0.8,0,1.6,0.1,2.2,0.4s1.3,0.6,1.7,1.1s0.8,1.2,1.1,1.9s0.4,1.7,0.4,2.8v9.9h-3.5v-9.8c0-0.7-0.1-1.2-0.2-1.6s-0.4-0.8-0.6-1.1
			s-0.6-0.5-1-0.6s-0.9-0.2-1.4-0.2c-0.4,0-0.8,0.1-1.2,0.2s-0.7,0.3-1,0.5c-0.2,0.2-0.5,0.3-0.7,0.6s-0.4,0.5-0.5,0.7v11.3H181
			V73.8z"/>
		<path class="st7" d="M199,78.3c0.3-1,0.7-1.8,1.3-2.6c0.5-0.7,1.2-1.3,2-1.7s1.7-0.6,2.6-0.6c0.9,0,1.6,0.2,2.3,0.5
			s1.2,0.7,1.8,1.3v-8.1h3.5v22.5h-3.2l-0.2-1.7c-0.5,0.6-1.1,1.1-1.8,1.4s-1.5,0.5-2.4,0.5c-1,0-1.8-0.2-2.6-0.6s-1.4-1-2-1.7
			c-0.5-0.7-1-1.6-1.2-2.5s-0.4-2-0.4-3.2v-0.3C198.6,80.4,198.7,79.3,199,78.3z M202.3,83.9c0.1,0.6,0.4,1.2,0.6,1.6
			c0.3,0.5,0.7,0.9,1.1,1.1s1,0.4,1.7,0.4c0.8,0,1.4-0.2,2-0.5s0.9-0.8,1.2-1.4v-6.8c-0.3-0.6-0.7-1.1-1.2-1.4s-1.2-0.5-1.9-0.5
			c-0.7,0-1.2,0.1-1.7,0.4s-0.8,0.6-1.1,1.1c-0.3,0.5-0.5,1-0.7,1.7s-0.2,1.3-0.2,2v0.3C202.1,82.6,202.1,83.3,202.3,83.9z"/>
		<path class="st7" d="M226.9,88.9c-0.1-0.3-0.1-0.6-0.2-0.9c-0.2,0.3-0.5,0.5-0.8,0.7s-0.7,0.4-1,0.6c-0.4,0.2-0.8,0.3-1.2,0.4
			s-0.9,0.1-1.4,0.1c-0.8,0-1.6-0.1-2.2-0.4s-1.3-0.6-1.7-1c-0.5-0.4-0.9-0.9-1.1-1.5s-0.4-1.2-0.4-1.9c0-0.9,0.2-1.6,0.5-2.3
			s0.9-1.2,1.5-1.7c0.6-0.4,1.4-0.7,2.3-0.9s1.9-0.3,3.1-0.3h2.5v-1.1c0-0.4-0.1-0.8-0.2-1.1s-0.3-0.6-0.6-0.9
			c-0.3-0.2-0.6-0.4-1-0.6s-0.9-0.2-1.4-0.2c-0.5,0-0.9,0.1-1.3,0.2s-0.7,0.3-0.9,0.5c-0.2,0.2-0.4,0.4-0.5,0.7s-0.2,0.6-0.2,0.9
			H217c0-0.6,0.2-1.2,0.5-1.8s0.7-1.1,1.3-1.6c0.5-0.5,1.2-0.8,2-1.1s1.7-0.4,2.8-0.4c0.9,0,1.8,0.1,2.6,0.3s1.5,0.6,2.1,1
			s1,1,1.4,1.7s0.5,1.5,0.5,2.4v7c0,0.7,0.1,1.4,0.2,1.9s0.3,1.1,0.4,1.5v0.2h-3.6C227.1,89.4,227,89.2,226.9,88.9z M224.2,86.9
			c0.4-0.1,0.8-0.3,1.1-0.5s0.6-0.4,0.8-0.6s0.4-0.5,0.5-0.7v-2.9h-2.3c-0.8,0-1.4,0.1-2,0.2s-1,0.3-1.3,0.6
			c-0.3,0.2-0.5,0.5-0.7,0.8s-0.2,0.7-0.2,1.1c0,0.3,0.1,0.6,0.2,0.9s0.3,0.5,0.5,0.7s0.5,0.3,0.8,0.5s0.7,0.2,1.2,0.2
			C223.4,87.1,223.8,87,224.2,86.9z"/>
	</g>
</g>
<g>
	<g>
		<path class="st0" d="M319.5,37.6c1.9,0,1.9-3,0-3C317.6,34.6,317.6,37.6,319.5,37.6L319.5,37.6z"/>
	</g>
</g>
<g>
	<g>
		<path class="st7" d="M280.7,75.2c1.9,0,1.9-3,0-3C278.7,72.2,278.7,75.2,280.7,75.2L280.7,75.2z"/>
	</g>
</g>
<g>
	<g>
		<path class="st7" d="M323.1,148.1c1.9,0,1.9-3,0-3C321.2,145.1,321.2,148.1,323.1,148.1L323.1,148.1z"/>
	</g>
</g>
<g>
	<g>
		<path class="st7" d="M92.6,29.1c1.9,0,1.9-3,0-3C90.7,26.1,90.7,29.1,92.6,29.1L92.6,29.1z"/>
	</g>
</g>
<g>
	<g>
		<path class="st7" d="M46.5,117.7c1.9,0,1.9-3,0-3C44.5,114.7,44.5,117.7,46.5,117.7L46.5,117.7z"/>
	</g>
</g>
<g>
	<g>
		<path class="st7" d="M369.3,30.3c1.9,0,1.9-3,0-3C367.3,27.3,367.3,30.3,369.3,30.3L369.3,30.3z"/>
	</g>
</g>
<g>
	<g>
		<path class="st7" d="M193.3,24.3c1.9,0,1.9-3,0-3C191.4,21.3,191.4,24.3,193.3,24.3L193.3,24.3z"/>
	</g>
</g>
<g>
	<g>
		<path class="st7" d="M103.5,245.1c1.9,0,1.9-3,0-3C101.6,242.1,101.6,245.1,103.5,245.1L103.5,245.1z"/>
	</g>
</g>
<text transform="matrix(1 0 0 1 414.506 791.9329)" class="st7 st13 st14">Papper Moon</text>
</svg>
