<svg version="1.1" id="Layer_1" xmlns="http://www.w3.org/2000/svg" xmlns:xlink="http://www.w3.org/1999/xlink" x="0px" y="0px"
	 width="100%" viewBox="0 0 848 272" enable-background="new 0 0 848 272" xml:space="preserve">
<path fill="#000000" opacity="1.000000" stroke="none" 
	d="
M541.000000,10.727333 
	C637.831116,10.728210 734.162292,10.729334 830.493408,10.730791 
	C837.867310,10.730903 837.936646,10.731978 837.939209,18.299049 
	C837.966187,97.463829 837.974121,176.628616 837.970398,255.793396 
	C837.970093,262.717773 837.704529,262.976379 830.521362,262.975952 
	C774.857117,262.972687 719.192810,262.924500 663.528564,262.931152 
	C537.703857,262.946198 411.879120,262.987701 286.054413,263.012726 
	C199.560135,263.029938 113.065865,263.038818 26.571592,263.047882 
	C16.027239,263.049011 16.000223,263.038940 15.999634,252.313629 
	C15.995369,174.815430 16.002892,97.317238 16.006788,19.819040 
	C16.006805,19.485716 16.007355,19.152386 16.009138,18.819065 
	C16.052565,10.710106 16.052605,10.707512 24.012157,10.707947 
	C155.842453,10.715151 287.672729,10.723840 419.503021,10.730333 
	C459.835358,10.732320 500.167664,10.728711 541.000000,10.727333 
M157.457565,238.993546 
	C178.035934,248.754257 199.654999,252.096451 222.130676,248.702072 
	C260.384827,242.924744 288.371643,222.349976 306.644958,188.518066 
	C308.986847,184.182220 311.462311,182.352921 316.277252,182.752838 
	C321.633423,183.197678 322.160797,183.714371 319.855927,188.726288 
	C311.056396,207.860870 298.342255,223.845947 281.512665,236.577530 
	C267.661133,247.056198 252.254013,254.213196 234.331116,258.700195 
	C303.664703,258.700195 371.791382,258.700195 440.528076,258.700195 
	C415.441071,244.346298 413.088135,217.716492 419.855347,199.978699 
	C427.245667,180.607666 444.578278,171.706100 462.768341,172.956955 
	C481.964203,174.276978 497.265320,185.886108 499.493317,199.778992 
	C491.618927,201.706482 489.466949,201.248550 486.928345,197.006973 
	C479.717926,184.959534 468.595306,180.931458 455.356354,182.453445 
	C443.098114,183.862656 434.586823,190.768112 429.965393,202.304077 
	C427.364532,208.796295 427.010956,215.581757 427.366882,222.448029 
	C428.101562,236.622009 438.114288,249.144669 451.290192,252.423553 
	C465.954742,256.072876 479.517456,250.749542 487.168182,238.341568 
	C489.028809,235.324020 496.292603,233.135513 498.402100,235.389038 
	C501.241425,238.422287 497.914764,240.880890 496.614594,243.273575 
	C493.528412,248.952805 489.006500,253.318848 483.382568,256.560638 
	C482.531403,257.051300 480.993835,257.024628 481.075836,259.040131 
	C490.610016,259.040131 500.104919,258.819702 509.582245,259.131531 
	C514.442505,259.291443 515.821960,257.580872 515.785339,252.817123 
	C515.585388,226.819870 515.736877,200.820068 515.637390,174.821655 
	C515.622009,170.804153 516.536926,168.601776 521.173706,168.643784 
	C525.762329,168.685364 526.259766,171.202133 526.240723,174.773865 
	C526.173889,187.272934 526.213318,199.772568 526.212708,212.271988 
	C526.211975,226.104675 526.189087,239.937424 526.235535,253.769958 
	C526.242371,255.820969 525.629272,258.739288 528.799622,258.816589 
	C537.675049,259.032959 546.559143,258.891937 556.491211,258.891937 
	C534.354797,242.466583 537.585815,214.802399 548.948364,202.417725 
	C561.133301,189.136734 585.050903,188.185486 598.355408,200.483749 
	C605.815979,207.380051 608.837402,216.276672 609.118347,226.022644 
	C609.500427,239.275040 604.560852,250.286835 592.164673,258.663879 
	C607.136353,258.663879 620.630798,258.663879 634.436707,258.663879 
	C621.560913,245.528534 619.193420,239.759521 619.572815,224.695160 
	C620.284485,196.431961 647.657227,184.634171 670.230042,195.846283 
	C678.030029,199.720566 683.140076,206.384659 684.175049,216.211258 
	C679.638489,215.672470 675.081299,218.743042 672.563599,212.724945 
	C669.330017,204.995575 663.046387,201.582504 654.841370,201.138351 
	C646.043762,200.662155 638.678711,203.108276 633.876343,210.965210 
	C629.183411,218.643188 628.856995,226.997498 630.460632,235.561371 
	C632.181641,244.752090 639.696533,252.256348 648.361877,253.572571 
	C659.645142,255.286469 668.037170,251.163025 672.787781,241.570740 
	C674.364075,238.388000 679.363647,236.570679 682.558350,238.429153 
	C686.200317,240.547836 683.182312,243.229309 682.382935,245.311020 
	C680.697388,249.700485 677.929749,253.472366 673.980713,256.254608 
	C673.156311,256.835480 671.758423,257.118042 672.102356,259.027710 
	C678.922119,259.027710 685.755066,258.776245 692.558899,259.113129 
	C697.363220,259.351013 698.868713,257.689545 698.831604,252.869614 
	C698.631836,226.872360 698.777283,200.872620 698.691040,174.874130 
	C698.677979,170.937347 699.440002,168.567215 704.161560,168.641510 
	C708.639893,168.711945 709.345825,171.025452 709.317078,174.701813 
	C709.222107,186.867172 709.279053,199.033722 709.277771,211.199814 
	C709.277527,213.964478 709.277771,216.729141 709.277771,219.720078 
	C711.893860,219.066681 712.783142,217.340347 713.962891,216.056793 
	C719.487793,210.045959 725.338318,204.268082 730.265869,197.793152 
	C735.167236,191.352615 741.179016,192.409119 747.597046,193.160843 
	C747.764709,195.747498 745.953064,196.687698 744.754578,197.946899 
	C736.598999,206.516052 728.503784,215.147446 720.152039,223.522430 
	C717.365845,226.316437 717.472473,228.076965 720.210571,230.818512 
	C728.097961,238.715591 735.865784,246.747604 743.338562,255.034988 
	C745.944092,257.924530 748.571716,259.100922 752.373047,259.083435 
	C777.204712,258.969177 802.037170,259.034576 826.869324,259.020599 
	C833.984070,259.016602 834.022766,258.985352 834.025635,251.729980 
	C834.054504,179.733353 834.068176,107.736740 834.091309,35.740120 
	C834.092957,30.748522 833.852966,25.735188 834.234741,20.771139 
	C834.661438,15.223019 832.103455,14.274713 827.146973,14.277756 
	C646.322021,14.388803 465.497040,14.367602 284.672028,14.378691 
	C268.941010,14.379656 253.206253,14.245368 236.094940,15.139984 
	C256.362427,20.770933 273.612457,29.487486 288.378723,42.651756 
	C303.040253,55.722637 314.745728,70.918961 321.721741,89.641289 
	C312.539368,92.360619 310.236542,91.385696 305.957947,83.536560 
	C283.305542,41.980572 238.255295,18.389633 192.044968,24.512014 
	C162.808716,28.385508 138.310287,41.606991 119.381859,64.425949 
	C97.113289,91.271576 88.771759,122.359138 94.797058,156.420532 
	C101.431999,193.928284 122.939331,221.188629 157.457565,238.993546 
M20.076847,136.500000 
	C20.066105,174.814362 20.045618,213.128738 20.052958,251.443100 
	C20.054401,258.982666 20.103914,259.011749 27.374546,259.014191 
	C74.351479,259.029877 121.328423,259.032867 168.305359,259.033142 
	C169.637024,259.033142 170.968460,258.943085 172.300430,258.920227 
	C173.459549,258.900330 174.619308,258.916077 175.778778,258.916077 
	C124.881233,245.226395 86.849792,202.340744 82.429947,152.157440 
	C76.383690,83.507523 109.712196,39.366100 172.540039,15.267088 
	C170.901505,13.922508 168.998032,14.376569 167.222931,14.376359 
	C120.579269,14.370853 73.935608,14.394021 27.291943,14.414946 
	C20.088741,14.418177 20.055836,14.424180 20.055376,21.555906 
	C20.052933,59.537270 20.068348,97.518639 20.076847,136.500000 
M553.588440,213.191422 
	C549.856567,221.055588 549.346619,229.177612 551.889954,237.448975 
	C555.078613,247.819061 564.772156,254.234360 576.085510,253.633713 
	C587.632629,253.020660 595.658142,245.293106 598.253662,232.288712 
	C600.749390,219.784225 594.739746,207.173279 583.937561,202.841034 
	C574.098145,198.894943 559.616150,201.364166 553.588440,213.191422 
M731.521912,258.019348 
	C725.021240,249.537384 717.351746,242.142960 709.307739,233.133881 
	C709.307739,241.556610 709.339355,248.464905 709.291138,255.372665 
	C709.273438,257.903625 710.496826,259.042053 712.922058,258.981598 
	C719.030762,258.829407 725.160278,259.554169 731.521912,258.019348 
z"/>
<path fill="#000000" opacity="1.000000" stroke="none" 
	d="
M200.655487,101.999901 
	C200.656616,86.834015 200.769775,72.166748 200.587585,57.503155 
	C200.536499,53.391441 201.433472,51.516846 206.076660,51.532589 
	C210.751801,51.548439 212.189804,53.281605 212.166855,57.705593 
	C212.046677,80.870369 212.097107,104.036057 212.099976,127.201431 
	C212.100815,133.907135 212.118515,133.953339 218.703522,133.964096 
	C235.702560,133.991837 252.701675,133.962631 269.700745,133.982178 
	C275.645447,133.989014 278.659424,138.862595 276.110992,144.156723 
	C275.455750,145.517960 274.358398,145.523041 273.200043,145.520477 
	C249.702713,145.468506 226.205353,145.407547 202.708099,145.325623 
	C202.246567,145.324020 201.785965,145.049667 200.655746,144.689041 
	C200.655746,130.720032 200.655746,116.609970 200.655487,101.999901 
z"/>
</svg>