<?xml version="1.0" encoding="utf-8"?>
<!-- Generator: Adobe Illustrator 24.1.1, SVG Export Plug-In . SVG Version: 6.00 Build 0)  -->
<svg version="1.1" id="Livello_1" xmlns="http://www.w3.org/2000/svg" xmlns:xlink="http://www.w3.org/1999/xlink" x="0px" y="0px"
	 viewBox="0 0 595.3 841.9" style="enable-background:new 0 0 595.3 841.9;" xml:space="preserve">
<style type="text/css">
	.st0{font-family:'Poppins-Light';}
	.st1{font-size:66.5423px;}
</style>
<path d="M247.1,351.6h6c-2,4.8-4.5,9.3-7.5,13.5c-4.6,6.5-10.4,12.2-17.1,16.6c-10,6.8-22,10.9-34.8,11.4c-0.9,0-1.8,0.1-2.7,0.1
	c-0.9,0-1.8,0-2.7-0.1c-26.9-1-49.7-17.9-59.3-41.6c-2.7-6.5-4.3-13.6-4.8-21c-0.1-1.4-0.1-2.9-0.1-4.4c0-0.3,0-0.7,0-1
	c0.1-8.6,1.9-16.8,5-24.3c3.1-7.5,7.4-14.3,12.8-20.1c6.9-7.5,15.5-13.3,25.1-17.1c6.7-2.6,13.9-4.1,21.4-4.4c0.9,0,1.8-0.1,2.7-0.1
	c0.9,0,1.8,0,2.7,0.1c7.5,0.3,14.7,1.8,21.4,4.4c4.8,1.8,9.3,4.2,13.4,7c4.3,2.9,8.2,6.3,11.7,10c1.9,2.1,3.7,4.3,5.4,6.6
	c3,4.2,5.5,8.7,7.5,13.5h-6c-0.5-1-1-2-1.5-3c-3.4-6.5-7.8-12.2-13.2-17.1c-1.2-1.1-2.5-2.2-3.9-3.3c-9.7-7.5-21.7-12.1-34.8-12.7
	c-0.9,0-1.8-0.1-2.7-0.1c-0.9,0-1.8,0-2.7,0.1c-14.9,0.6-28.4,6.6-38.7,16c-6.2,5.6-11.2,12.4-14.7,20.1c-3.4,7.4-5.3,15.7-5.4,24.3
	c0,0.3,0,0.7,0,1c0,1.5,0.1,2.9,0.2,4.4c0.5,7.4,2.4,14.5,5.3,21c9.3,20.5,29.6,35.1,53.4,36.1c0.9,0,1.8,0.1,2.7,0.1
	c0.9,0,1.8,0,2.7-0.1c13.1-0.6,25.1-5.2,34.8-12.7c7.1-5.4,12.9-12.4,17.1-20.4C246.1,353.6,246.6,352.6,247.1,351.6z"/>
<polygon points="228.5,325.3 228.5,330.6 188.4,330.6 188.4,280.8 193.7,280.8 193.7,325.3 "/>
<text transform="matrix(1 0 0 1 301.8357 393.2248)" class="st0 st1">Clock</text>
</svg>
