<svg id="Livello_1" data-name="Livello 1" xmlns="http://www.w3.org/2000/svg" viewBox="0 0 312.34 68.13"><defs><style>.cls-1{fill:#b6fcdf;}.cls-2{fill:#7afcca;}.cls-3{fill:#00e095;}.cls-4{font-size:54.34px;font-family:Gotham-Medium, Gotham;font-weight:500;}.cls-5{fill:#00d87b;}</style></defs><path class="cls-1" d="M46.45,43.22h55.37A4.18,4.18,0,0,1,106,47.4v0a0,0,0,0,1,0,0H50.63a4.18,4.18,0,0,1-4.18-4.18v0a0,0,0,0,1,0,0Z"/><path class="cls-2" d="M23.22,21H94.37a3,3,0,0,1,3,3v0a0,0,0,0,1,0,0H23.22a0,0,0,0,1,0,0V21A0,0,0,0,1,23.22,21Z"/><path class="cls-1" d="M252.35,108.17h-45.6A22.71,22.71,0,0,1,184,85.46h59.6Z" transform="translate(-137.59 -40.04)"/><path class="cls-3" d="M234.92,62.75H160.29A22.7,22.7,0,0,1,137.59,40h64.29a35.39,35.39,0,0,1,33,22.71Z" transform="translate(-137.59 -40.04)"/><path class="cls-2" d="M243.64,85.46H183.52a22.71,22.71,0,0,1-22.71-22.71h74.11Z" transform="translate(-137.59 -40.04)"/><text class="cls-4" transform="translate(121.23 53.94)">Fly<tspan class="cls-5" x="83.57" y="0">Bag</tspan></text></svg>