<svg id="Livello_1" data-name="Livello 1" xmlns="http://www.w3.org/2000/svg" viewBox="0 0 356.95 356.95"><polygon points="223.09 312.33 223.09 312.34 200.79 334.64 200.78 334.64 178.48 356.95 156.17 334.65 156.17 334.64 133.86 312.34 133.86 312.33 156.17 290.03 178.48 312.34 178.48 312.33 200.79 290.03 223.09 312.33"/><polygon points="312.33 223.09 290.02 245.4 290.02 245.41 267.71 267.71 267.71 267.72 245.4 290.02 223.1 267.72 245.4 245.41 245.4 245.4 223.1 223.1 223.09 223.1 223.09 223.09 200.79 200.79 178.48 178.48 156.17 200.78 156.17 200.79 133.86 223.09 133.86 223.1 111.55 245.4 111.55 245.41 133.86 267.72 111.55 290.02 89.24 267.72 89.24 267.71 66.93 245.41 66.93 245.4 44.62 223.09 66.93 200.79 89.24 223.1 89.24 223.09 111.55 200.79 111.55 200.78 133.86 178.48 133.86 178.47 156.17 156.17 156.17 156.16 178.48 133.86 200.79 156.17 223.09 178.47 223.09 178.48 223.1 178.48 245.4 200.78 245.4 200.79 245.41 200.79 267.71 223.09 267.71 223.1 267.72 223.1 290.02 200.79 290.03 200.79 312.33 223.09"/><polygon points="356.95 178.47 356.95 223.09 312.34 178.48 312.33 178.48 312.33 178.47 290.03 156.17 290.02 156.17 290.02 156.16 267.72 133.86 267.71 133.86 267.71 133.85 245.41 111.55 245.4 111.55 245.4 111.54 223.1 89.24 223.09 89.24 223.09 89.23 178.48 44.62 156.17 66.92 156.17 66.93 133.86 89.23 133.86 89.24 111.55 111.54 111.55 111.55 89.24 133.85 89.24 133.86 66.93 156.16 66.93 156.17 44.62 178.47 44.62 178.48 22.31 200.78 0 223.09 0 178.47 22.31 156.17 22.31 156.16 44.62 133.86 44.62 133.85 66.93 111.55 66.93 111.54 89.24 89.24 89.24 89.23 111.55 66.93 111.55 66.92 133.86 44.62 133.86 44.61 156.17 22.31 156.17 22.3 178.48 0 223.09 44.61 223.09 44.62 223.1 44.62 245.4 66.92 245.4 66.93 245.41 66.93 267.71 89.23 267.71 89.24 267.72 89.24 290.02 111.54 290.02 111.55 290.03 111.55 312.33 133.85 312.33 133.86 312.34 133.86 334.64 156.16 334.64 156.17 334.65 156.17 356.95 178.47"/></svg>