<?xml version="1.0" encoding="utf-8"?>
<!-- Generator: Adobe Illustrator 24.1.1, SVG Export Plug-In . SVG Version: 6.00 Build 0)  -->
<svg version="1.1" id="Livello_1" xmlns="http://www.w3.org/2000/svg" xmlns:xlink="http://www.w3.org/1999/xlink" x="0px" y="0px"
	 viewBox="0 0 595.28 841.89" style="enable-background:new 0 0 595.28 841.89;" xml:space="preserve">
<style type="text/css">
	.st0{fill:none;stroke:#000000;stroke-miterlimit:10;}
	.st1{fill:#FF8080;}
	.st2{fill:#808080;}
	.st3{fill:#872E4C;}
</style>
<ellipse transform="matrix(0.7071 -0.7071 0.7071 0.7071 -136.9946 -289.1743)" class="st0" cx="-417.56" cy="20.78" rx="76.04" ry="125.79"/>
<ellipse transform="matrix(0.7071 -0.7071 0.7071 0.7071 -134.5138 -326.5576)" class="st0" cx="-461.45" cy="-0.91" rx="62.32" ry="120.41"/>
<ellipse transform="matrix(0.7071 -0.7071 0.7071 0.7071 -149.4973 -293.9247)" class="st0" cx="-429.55" cy="33.5" rx="17.6" ry="29.11"/>
<rect x="-473.05" y="-112.79" class="st0" width="37.6" height="241.37"/>
<path d="M409.12,341.24c5.61,5.62,4.21,16.5-2.68,26.49h-41.29c1.45-6.02,5.22-12.62,10.95-18.35
	C387.46,338.02,402.25,334.37,409.12,341.24z"/>
<path d="M409.12,341.24c5.61,5.62,4.21,16.5-2.68,26.49h-41.29c1.45-6.02,5.22-12.62,10.95-18.35
	C387.46,338.02,402.25,334.37,409.12,341.24z"/>
<path d="M464.77,260.89c22.83,22.83,18.81,65.85-6.59,106.84c-7.63,12.35-17.22,24.51-28.59,35.88c-0.58,0.58-1.16,1.15-1.74,1.71
	c-2.6,2.55-5.25,5.01-7.92,7.36c1.82-2.44,3.56-4.9,5.22-7.36c8.61-12.71,15.13-25.49,19.32-37.59c8.57-24.64,7.5-46.45-5.19-59.15
	c-24.34-24.33-82.19-5.94-129.21,41.08c-5.88,5.88-11.32,11.94-16.28,18.07c-8.86,10.97-16.21,22.2-21.87,33.2
	c-0.35-10.34,1.34-21.59,4.93-33.2c7.39-23.87,22.83-49.29,45.2-71.66C371.17,246.94,435.07,231.2,464.77,260.89z"/>
<path d="M281.47,559.66c-5.61,5.62-4.21,16.5,2.68,26.49h41.29c-1.45-6.02-5.22-12.62-10.95-18.35
	C303.13,556.44,288.34,552.79,281.47,559.66z"/>
<path d="M281.47,559.66c-5.61,5.62-4.21,16.5,2.68,26.49h41.29c-1.45-6.02-5.22-12.62-10.95-18.35
	C303.13,556.44,288.34,552.79,281.47,559.66z"/>
<path d="M225.82,479.31c-22.83,22.83-18.81,65.85,6.59,106.84c7.63,12.35,17.22,24.51,28.59,35.88c0.58,0.58,1.16,1.15,1.74,1.71
	c2.6,2.55,5.25,5.01,7.92,7.36c-1.82-2.44-3.56-4.9-5.22-7.36c-8.61-12.71-15.13-25.49-19.32-37.59
	c-8.57-24.64-7.5-46.45,5.19-59.15c24.34-24.33,82.19-5.94,129.21,41.08c5.88,5.88,11.32,11.94,16.28,18.07
	c8.86,10.97,16.21,22.2,21.87,33.2c0.35-10.34-1.34-21.59-4.93-33.2c-7.39-23.87-22.83-49.29-45.2-71.66
	C319.42,465.36,255.52,449.62,225.82,479.31z"/>
<path class="st1" d="M152.51,375.31c-5.62,5.61-16.5,4.21-26.49-2.68v-41.29c6.02,1.45,12.62,5.22,18.35,10.95
	C155.73,353.65,159.38,368.44,152.51,375.31z"/>
<path class="st1" d="M152.51,375.31c-5.62,5.61-16.5,4.21-26.49-2.68v-41.29c6.02,1.45,12.62,5.22,18.35,10.95
	C155.73,353.65,159.38,368.44,152.51,375.31z"/>
<path class="st1" d="M232.86,430.96c-22.83,22.83-65.85,18.81-106.84-6.59c-12.35-7.63-24.51-17.22-35.88-28.59
	c-0.58-0.58-1.15-1.16-1.71-1.74c-2.55-2.6-5.01-5.25-7.36-7.92c2.44,1.82,4.9,3.56,7.36,5.22c12.71,8.61,25.49,15.13,37.59,19.32
	c24.64,8.57,46.45,7.5,59.15-5.19c24.33-24.34,5.94-82.19-41.08-129.21c-5.88-5.88-11.94-11.32-18.07-16.28
	c-10.97-8.86-22.2-16.21-33.2-21.87c10.34-0.35,21.59,1.34,33.2,4.93c23.87,7.39,49.29,22.83,71.66,45.2
	C246.81,337.36,262.55,401.26,232.86,430.96z"/>
<path class="st2" d="M268.42,116.13c-5.61,5.62-4.21,16.5,2.68,26.49h41.29c-1.45-6.02-5.22-12.62-10.95-18.35
	C290.08,112.91,275.29,109.26,268.42,116.13z"/>
<path class="st2" d="M268.42,116.13c-5.61,5.62-4.21,16.5,2.68,26.49h41.29c-1.45-6.02-5.22-12.62-10.95-18.35
	C290.08,112.91,275.29,109.26,268.42,116.13z"/>
<path class="st2" d="M212.77,35.78c-22.83,22.83-18.81,65.85,6.59,106.84c7.63,12.35,17.22,24.51,28.59,35.88
	c0.58,0.58,1.16,1.15,1.74,1.71c2.6,2.55,5.25,5.01,7.92,7.36c-1.82-2.44-3.56-4.9-5.22-7.36c-8.61-12.71-15.13-25.49-19.32-37.59
	c-8.57-24.64-7.5-46.45,5.19-59.15c24.34-24.33,82.19-5.94,129.21,41.08c5.88,5.88,11.32,11.94,16.28,18.07
	c8.86,10.97,16.21,22.2,21.87,33.2c0.35-10.34-1.34-21.59-4.93-33.2c-7.39-23.87-22.83-49.29-45.2-71.66
	C306.37,21.83,242.47,6.09,212.77,35.78z"/>
<path class="st3" d="M79.18,151.1c-5.61,5.62-4.21,16.5,2.68,26.49h41.29c-1.45-6.02-5.22-12.62-10.95-18.35
	C100.84,147.88,86.05,144.23,79.18,151.1z"/>
<path class="st3" d="M23.53,70.75C0.7,93.58,4.72,136.6,30.12,177.59c7.63,12.35,17.22,24.51,28.59,35.88
	c0.58,0.58,1.16,1.15,1.74,1.71c2.6,2.55,5.25,5.01,7.92,7.36c-1.82-2.44-3.56-4.9-5.22-7.36c-8.61-12.71-15.13-25.49-19.32-37.59
	c-8.57-24.64-7.5-46.45,5.19-59.15c24.34-24.33,82.19-5.94,129.21,41.08c5.88,5.88,11.32,11.94,16.28,18.07
	c8.86,10.97,16.21,22.2,21.87,33.2c0.35-10.34-1.34-21.59-4.93-33.2c-7.39-23.87-22.83-49.29-45.2-71.66
	C117.13,56.8,53.23,41.06,23.53,70.75z"/>
</svg>
