<?xml version="1.0" encoding="utf-8"?>
<!-- Generator: Adobe Illustrator 24.1.1, SVG Export Plug-In . SVG Version: 6.00 Build 0)  -->
<svg version="1.1" xmlns="http://www.w3.org/2000/svg" xmlns:xlink="http://www.w3.org/1999/xlink" x="0px" y="0px"
	 viewBox="0 0 595.28 841.89" style="enable-background:new 0 0 595.28 841.89;" xml:space="preserve">
<style type="text/css">
	.st0{fill:#E2B330;}
</style>
<g id="Livello_1_copia">
</g>
<g id="Livello_1_copia_2">
</g>
<g id="Livello_1">
	<g>
		<g id="XMLID_1_">
			<g>
				<path class="st0" d="M500.65,375.1l-28.21-36.31l-28.21-36.28l-28.21-36.28l-28.21-36.28l-28.21-36.31l-28.21,36.31
					l-28.21,36.28l-28.21-36.28l-28.21-36.31l-28.21,36.31l-28.21,36.28l-28.18,36.28l-28.21,36.28l-28.21,36.31l-28.21,36.28
					l28.21,36.28l28.21,36.28l28.21,36.31l28.18,36.28l28.21-36.28l28.21-36.31l28.21-36.28l-28.21-36.28l-28.21-36.28l-28.21-36.31
					l28.21-36.28l28.21-36.28l28.21,36.28l28.21,36.28l28.21-36.28l28.21-36.28l28.21,36.28l28.21,36.28l-28.21,36.31l-56.42,72.55
					l28.21,36.28l28.21,36.31l28.21,36.28l28.21-36.28l28.21-36.31l28.21-36.28l28.21-36.28L500.65,375.1z M218.55,447.65
					l-28.21,36.28l-28.18-36.28l-28.21-36.28l28.21-36.28l28.18,36.28L218.55,447.65z M444.23,447.65l-28.21,36.28l-28.21-36.28
					l28.21-36.28l28.21-36.28l28.21,36.28L444.23,447.65z"/>
			</g>
		</g>
	</g>
</g>
</svg>
