<?xml version="1.0" encoding="utf-8"?>
<!-- Generator: Adobe Illustrator 24.1.1, SVG Export Plug-In . SVG Version: 6.00 Build 0)  -->
<svg version="1.1" xmlns="http://www.w3.org/2000/svg" xmlns:xlink="http://www.w3.org/1999/xlink" x="0px" y="0px"
	 viewBox="0 0 595.3 841.9" style="enable-background:new 0 0 595.3 841.9;" xml:space="preserve">
<style type="text/css">
	.st0{fill:#E2B330;}
</style>
<g id="Livello_1_copia">
</g>
<g id="Livello_1_copia_2">
</g>
<g id="Livello_1">
	<g>
		<g id="XMLID_1_">
			<g>
				<path class="st0" d="M381.6,300.2L371,286.5l-10.6-13.6l-10.6-13.6l-10.6-13.6L328.6,232l-10.6,13.7l-10.6,13.6l-10.6-13.6
					L286.1,232l-10.6,13.7l-10.6,13.6l-10.6,13.6l-10.6,13.6l-10.6,13.7l-10.6,13.6l10.6,13.6l10.6,13.6l10.6,13.7l10.6,13.6
					l10.6-13.6l10.6-13.7l10.6-13.6l-10.6-13.6l-10.6-13.6l-10.6-13.7l10.6-13.6l10.6-13.6l10.6,13.6l10.6,13.6l10.6-13.6l10.6-13.6
					l10.6,13.6l10.6,13.6l-10.6,13.7l-21.2,27.3l10.6,13.6l10.6,13.7l10.6,13.6l10.6-13.6l10.6-13.7l10.6-13.6l10.6-13.6
					L381.6,300.2z M275.5,327.5l-10.6,13.6l-10.6-13.6l-10.6-13.6l10.6-13.6l10.6,13.6L275.5,327.5z M360.4,327.5l-10.6,13.6
					l-10.6-13.6l10.6-13.6l10.6-13.6l10.6,13.6L360.4,327.5z"/>
			</g>
		</g>
	</g>
</g>
</svg>
