<?xml version="1.0" encoding="utf-8"?>
<!-- Generator: Adobe Illustrator 24.1.1, SVG Export Plug-In . SVG Version: 6.00 Build 0)  -->
<svg version="1.1" id="Livello_1" xmlns="http://www.w3.org/2000/svg" xmlns:xlink="http://www.w3.org/1999/xlink" x="0px" y="0px"
	 viewBox="0 0 595.28 841.89" style="enable-background:new 0 0 595.28 841.89;" xml:space="preserve">
<style type="text/css">
	.st0{fill:#040411;}
	.st1{fill:#96381B;}
	.st2{fill:#FFFF00;}
	.st3{fill:#4C0808;}
	.st4{fill:#FFFFFF;}
	.st5{fill:#0071BC;}
	.st6{fill:#2E3192;}
	.st7{fill:#1B1464;}
	.st8{fill:#A83E22;}
	.st9{fill:#A8A34A;}
	.st10{fill:#930909;}
	.st11{fill:#8C6239;}
</style>
<rect y="0.42" class="st0" width="595.28" height="841.89"/>
<path class="st1" d="M448.63,568.28H238.88c-34.12,0-61.78-27.66-61.78-61.78v-0.62c0-34.12,27.66-61.78,61.78-61.78h209.75
	c34.12,0,61.78,27.66,61.78,61.78v0.62C510.41,540.62,482.75,568.28,448.63,568.28z"/>
<path class="st1" d="M274.59,542.45v-72.51c0-34.12,27.66-61.78,61.78-61.78h0.62c34.12,0,61.78,27.66,61.78,61.78v72.51
	c0,34.12-27.66,61.78-61.78,61.78h-0.62C302.25,604.22,274.59,576.57,274.59,542.45z"/>
<circle class="st2" cx="255.93" cy="533" r="10.53"/>
<circle class="st2" cx="255.93" cy="479.39" r="10.53"/>
<circle class="st2" cx="217.48" cy="529.04" r="8.97"/>
<circle class="st2" cx="217.48" cy="483.35" r="8.97"/>
<path class="st3" d="M288.6,549.42v-86.45c0-30.27,24.54-54.81,54.81-54.81h0.55c30.27,0,54.81,24.54,54.81,54.81v86.45
	c0,30.27-24.54,54.81-54.81,54.81h-0.55C313.14,604.22,288.6,579.69,288.6,549.42z"/>
<polygon class="st4" points="330.6,511.27 312.4,512.02 314.91,520.53 "/>
<polygon class="st4" points="319.07,552.37 301,554.56 304.17,562.84 "/>
<polygon class="st4" points="313.83,538.69 295.75,540.88 298.93,549.16 "/>
<polygon class="st4" points="337.9,572.21 322.22,581.46 328.46,587.77 "/>
<polygon class="st4" points="327.61,561.78 311.93,571.04 318.16,577.35 "/>
<polygon class="st4" points="330.6,501.11 312.4,500.37 314.91,491.86 "/>
<polygon class="st4" points="319.07,460.01 301,457.83 304.17,449.55 "/>
<polygon class="st4" points="313.83,473.69 295.75,471.51 298.93,463.23 "/>
<polygon class="st4" points="337.9,440.18 322.22,430.92 328.46,424.61 "/>
<polygon class="st4" points="327.61,450.6 311.93,441.35 318.16,435.04 "/>
<path class="st5" d="M595.28,188.29v577.35h-216c-2.01,0-3.94-0.27-5.75-0.77c-0.01,0-0.03-0.02-0.04-0.02
	c-7.75-2.15-13.37-8.53-13.37-16.06V205.13c0-9.3,8.58-16.84,19.16-16.84H595.28z"/>
<path class="st4" d="M595.28,210.7v105.42H421.21c-13.09,0-23.69-7.98-23.69-17.82v-69.78c0-9.84,10.61-17.82,23.69-17.82H595.28z"
	/>
<path class="st6" d="M595.28,339.27v447.61H381.32c-2.68,0-5.29-0.31-7.79-0.88c-0.01,0-0.03-0.02-0.04-0.02
	c-15.29-3.54-26.68-17.25-26.68-33.61V355.13c0-6.85,4.35-12.69,10.44-14.91c0.92-0.34,1.88-0.59,2.87-0.75
	c0.83-0.12,1.69-0.2,2.56-0.2H595.28z"/>
<path class="st7" d="M595.28,336.98v115.9H346.82v-97.86c0-7.67,5.52-14.22,13.3-16.83c2.33-0.78,4.86-1.21,7.51-1.21H595.28z"/>
<g>
	<g>
		<path class="st8" d="M112.38,57.17c-0.52-2.1-1.47-3.94-2-4.73c-0.88-1.18-1.33-1.57-4.26-1.57h-3.91v24.27
			c0,4.18,0.47,4.57,5.12,4.91v1.73h-16.2v-1.73c4.48-0.34,4.92-0.72,4.92-4.91V50.87h-3.65c-2.84,0-3.65,0.41-4.59,1.74
			c-0.68,0.99-1.29,2.61-1.95,4.59h-1.79c0.34-3.51,0.68-7.22,0.8-9.81h1.4c0.77,1.19,1.36,1.24,2.85,1.24h20.33
			c1.4,0,2-0.27,2.83-1.24h1.39c0.03,2.23,0.24,6.43,0.49,9.62L112.38,57.17z"/>
		<path class="st8" d="M131.15,81.78v-1.63c2.49-0.34,2.74-0.66,2.74-3.63v-8.76c0-4.03-1.63-5.65-4.12-5.63
			c-1.47,0-3.05,0.57-4.31,1.89v12.5c0,2.95,0.31,3.29,2.9,3.63v1.63h-11.78v-1.63c2.66-0.29,3.19-0.48,3.19-3.76V52.44
			c0-2.47-0.25-3.07-3.3-3.47v-1.52c3.37-0.29,6.76-1.02,8.99-1.73c0,1.92,0,4.03,0,5.99v10.37c1.8-1.77,4.41-3.46,7.06-3.46
			c4.35,0,7.09,2.8,7.09,8.59v9.21c0,3.27,0.38,3.39,3,3.74v1.63H131.15z"/>
		<path class="st8" d="M164.97,77.01c-3.16,4.41-7.07,5.38-9.03,5.38c-6.62,0-10.46-5.07-10.46-11.06c0-3.53,1.52-6.95,3.65-9.09
			c2.24-2.33,5.08-3.62,7.83-3.62c4.8,0,8.23,4.02,8.2,8.17c-0.02,0.92-0.1,1.64-0.79,1.82c-0.99,0.24-7.94,0.63-13.28,0.83
			c0.08,5.91,3.5,8.68,7.15,8.68c2.02,0,4-0.77,5.85-2.4L164.97,77.01z M155.87,60.65c-2.15,0-4.08,2.33-4.53,6.39
			c2.36-0.03,4.62-0.07,7.06-0.15c0.79-0.03,1.09-0.19,1.09-1.02C159.55,63.26,158.16,60.65,155.87,60.65z"/>
		<path class="st8" d="M207.59,57.17c-0.52-2.1-1.47-3.94-2-4.73c-0.88-1.18-1.33-1.57-4.26-1.57h-3.91v24.27
			c0,4.18,0.47,4.57,5.12,4.91v1.73h-16.2v-1.73c4.48-0.34,4.92-0.72,4.92-4.91V50.87h-3.65c-2.84,0-3.65,0.41-4.59,1.74
			c-0.68,0.99-1.29,2.61-1.95,4.59h-1.79c0.34-3.51,0.68-7.22,0.8-9.81h1.4c0.77,1.19,1.36,1.24,2.85,1.24h20.33
			c1.4,0,2-0.27,2.83-1.24h1.39c0.03,2.23,0.24,6.43,0.49,9.62L207.59,57.17z"/>
		<path class="st8" d="M226.36,81.78v-1.63c2.49-0.34,2.74-0.66,2.74-3.63v-8.76c0-4.03-1.63-5.65-4.12-5.63
			c-1.47,0-3.05,0.57-4.31,1.89v12.5c0,2.95,0.31,3.29,2.9,3.63v1.63h-11.78v-1.63c2.66-0.29,3.19-0.48,3.19-3.76V52.44
			c0-2.47-0.25-3.07-3.3-3.47v-1.52c3.37-0.29,6.76-1.02,8.99-1.73c0,1.92,0,4.03,0,5.99v10.37c1.8-1.77,4.41-3.46,7.06-3.46
			c4.35,0,7.09,2.8,7.09,8.59v9.21c0,3.27,0.38,3.39,3,3.74v1.63H226.36z"/>
		<path class="st8" d="M240.49,81.78v-1.63c2.91-0.34,3.24-0.56,3.24-4.13V65.88c0-3.33-0.22-3.53-2.85-3.91v-1.52
			c3.02-0.39,5.94-1.06,8.53-1.91c0,2.14,0,4.25,0,6.36v11.12c0,3.47,0.26,3.79,3.34,4.13v1.63H240.49z M246.23,54.77
			c-1.76,0-3.33-1.51-3.33-3.3c0-1.93,1.57-3.33,3.38-3.33c1.83,0,3.3,1.4,3.3,3.33C249.57,53.27,248.1,54.77,246.23,54.77z"/>
		<path class="st8" d="M269.85,81.78v-1.63c2.43-0.31,2.63-0.56,2.63-4.06v-8.61c0-3.6-1.61-5.17-3.94-5.17
			c-1.59,0-3.02,0.76-4.47,1.92v12.2c0,3.25,0.24,3.42,2.65,3.73v1.63h-11.54v-1.63c2.9-0.42,3.21-0.53,3.21-3.86V65.72
			c0-3.15-0.39-3.3-2.81-3.76v-1.52c2.8-0.38,5.96-1.04,8.56-1.97c-0.03,0.87-0.07,2.61-0.07,3.8c1.02-0.71,2.11-1.48,3.33-2.25
			c1.49-0.92,2.59-1.4,4.07-1.4c4.11,0,6.7,3.01,6.7,8.12v9.66c0,3.27,0.31,3.42,2.93,3.76v1.63H269.85z"/>
		<path class="st8" d="M291.68,74c-0.76,0.7-1.19,1.47-1.19,2.02c0,0.85,0.93,1.9,3,1.9c1.72,0,4.06-0.02,5.74-0.02
			c3.16,0,7.58,1.2,7.58,6.22c0,5.6-6.77,10.33-13.55,10.33c-6.36,0-9.4-3.3-9.44-6.18c0-1.19,0.46-2.06,1.44-2.84
			c1.25-1,2.81-2.16,3.95-2.94c-1.97-0.68-3.13-1.75-3.82-2.82c-0.56-0.8-0.81-1.95-0.74-2.59c2.24-0.91,4.24-2.41,5.22-3.65
			L291.68,74z M294.13,74.51c-5.44,0-9.27-3.04-9.27-7.7c0-5.61,5.27-8.25,9.64-8.25c1.98,0,3.7,0.43,5.46,1.31
			c2.21,0,5.64-0.37,6.97-0.73l0.27,0.43c-0.31,0.88-1.02,2.48-1.89,3c-0.83,0-2.35-0.2-3.06-0.25c0.8,1.01,1.31,2.44,1.31,4.34
			C303.57,71.91,298.91,74.51,294.13,74.51z M294.93,82.65c-2.56,0-3.79,0.31-4.6,1c-1.06,0.87-1.78,2.07-1.78,3.29
			c0,2.74,2.67,4.83,6.9,4.83c4.25,0,6.8-2.07,6.8-5c0-1.83-1.08-3.11-2.61-3.59C298.3,82.76,296.91,82.65,294.93,82.65z
			 M294.16,60.39c-1.83,0-3.57,1.96-3.57,5.79c0,3.66,1.48,6.5,4.02,6.5c2.08-0.04,3.5-2.06,3.5-5.89
			C298.11,63.31,296.75,60.39,294.16,60.39z"/>
		<path class="st8" d="M109.61,141.77c-2.85,0.39-5.93,1.05-9.03,1.82c0-1.01,0-2.45,0-3.63c-2.32,1.93-4.5,3.63-7.31,3.63
			c-3.98,0-6.57-2.52-6.57-7.42v-10.32c0-2.49-0.34-2.76-1.68-3.08l-1.2-0.29v-1.52c2.46-0.1,6.25-0.51,8.72-0.88
			c-0.12,1.96-0.15,4.54-0.15,7.61v7.27c0,3.73,1.91,4.9,3.88,4.9c1.59,0,2.98-0.48,4.31-1.82v-12.15c0-2.49-0.38-2.88-1.92-3.13
			l-1.57-0.27v-1.52c3.06-0.12,7.13-0.55,9.2-0.88v16.79c0,2.62,0.34,3.11,2.08,3.24l1.23,0.08V141.77z"/>
		<path class="st8" d="M126.69,142.98v-1.63c2.43-0.31,2.63-0.56,2.63-4.06v-8.61c0-3.6-1.61-5.17-3.94-5.17
			c-1.59,0-3.02,0.76-4.47,1.92v12.2c0,3.25,0.24,3.42,2.65,3.73v1.63h-11.54v-1.63c2.9-0.42,3.21-0.53,3.21-3.86v-10.57
			c0-3.15-0.39-3.3-2.81-3.76v-1.52c2.8-0.38,5.96-1.04,8.56-1.97c-0.03,0.87-0.07,2.61-0.07,3.8c1.02-0.71,2.11-1.48,3.33-2.25
			c1.49-0.92,2.59-1.4,4.07-1.4c4.11,0,6.7,3.01,6.7,8.12v9.66c0,3.27,0.31,3.42,2.93,3.76v1.63H126.69z"/>
		<path class="st8" d="M166.5,141.67c-1.17,0.2-5.56,0.82-9.26,1.95c0-1,0-2.04,0-3.08c-0.92,0.59-2.21,1.34-3.13,1.94
			c-1.51,0.91-2.49,1.11-3.07,1.11c-4.25,0-10.15-3.85-10.15-11.29c0-7.02,6.19-12.49,13.8-12.49c0.48,0,1.63,0.04,2.54,0.3v-6.44
			c0-2.9-0.29-3.1-3.61-3.47v-1.56c3.08-0.36,7.01-1.04,9.33-1.73c0,1.95,0,3.9,0,6.06v23.77c0,2.72,0.32,3.01,2.24,3.21l1.3,0.13
			V141.67z M157.24,124.57c-0.78-1.55-2.4-2.57-4.36-2.57c-1.88,0-5.62,1.27-5.62,8.64c0,6.5,3.76,9.23,6.39,9.29
			c1.24,0,2.43-0.42,3.59-1.21V124.57z"/>
		<path class="st8" d="M188.33,138.21c-3.16,4.41-7.07,5.38-9.03,5.38c-6.62,0-10.46-5.07-10.46-11.06c0-3.53,1.52-6.95,3.65-9.09
			c2.24-2.33,5.08-3.62,7.83-3.62c4.8,0,8.23,4.02,8.2,8.17c-0.02,0.92-0.1,1.64-0.79,1.82c-0.99,0.24-7.94,0.63-13.28,0.83
			c0.08,5.91,3.5,8.68,7.15,8.68c2.02,0,4-0.77,5.85-2.4L188.33,138.21z M179.23,121.85c-2.15,0-4.08,2.33-4.53,6.39
			c2.36-0.03,4.62-0.07,7.06-0.15c0.79-0.03,1.09-0.19,1.09-1.02C182.91,124.46,181.52,121.85,179.23,121.85z"/>
		<path class="st8" d="M204.22,142.98h-12.86v-1.63c2.88-0.31,3.15-0.56,3.15-3.71v-10.97c0-2.84-0.2-3.05-2.8-3.51v-1.47
			c2.93-0.37,5.59-0.99,8.48-1.99c0,1.68,0,3.89,0,5.54c2.12-3.22,4.06-5.42,6.31-5.42c1.89,0,3.19,1.24,3.19,2.85
			c0,2.03-1.45,3.36-2.3,3.8c-0.64,0.31-1.12,0.12-1.49-0.2c-0.83-0.73-1.48-1.44-2.36-1.44c-0.87,0-2.36,0.98-3.35,3.15v9.65
			c0,3.17,0.32,3.36,4.02,3.73V142.98z"/>
		<path class="st8" d="M233.67,142.99c-0.87,0.43-1.68,0.6-2.09,0.6c-3.69,0-5.83-1.89-5.83-6.33v-14.44h-3.35l-0.27-0.61l1.44-1.78
			h2.18v-4.25c1.47-1.15,3.61-2.68,5.11-3.83l0.7,0.3c-0.07,1.64-0.15,4.44-0.12,7.78h5.35c0.46,0.51,0.27,1.93-0.37,2.39h-4.98
			v12.69c0,4.03,1.63,4.6,2.73,4.6c0.99,0,1.83-0.26,2.68-0.62l0.49,1.66L233.67,142.99z"/>
		<path class="st8" d="M253.55,142.98v-1.63c2.49-0.34,2.74-0.66,2.74-3.63v-8.76c0-4.03-1.63-5.65-4.12-5.63
			c-1.47,0-3.05,0.57-4.31,1.89v12.5c0,2.95,0.31,3.29,2.9,3.63v1.63h-11.78v-1.63c2.66-0.29,3.19-0.48,3.19-3.76v-23.95
			c0-2.47-0.25-3.07-3.3-3.47v-1.52c3.37-0.29,6.76-1.02,8.99-1.73c0,1.92,0,4.03,0,5.99v10.37c1.8-1.77,4.41-3.46,7.06-3.46
			c4.35,0,7.09,2.8,7.09,8.59v9.21c0,3.27,0.38,3.39,3,3.74v1.63H253.55z"/>
		<path class="st8" d="M287.37,138.21c-3.16,4.41-7.07,5.38-9.03,5.38c-6.62,0-10.46-5.07-10.46-11.06c0-3.53,1.52-6.95,3.65-9.09
			c2.24-2.33,5.08-3.62,7.83-3.62c4.8,0,8.23,4.02,8.2,8.17c-0.02,0.92-0.1,1.64-0.79,1.82c-0.99,0.24-7.94,0.63-13.28,0.83
			c0.08,5.91,3.5,8.68,7.15,8.68c2.02,0,4-0.77,5.85-2.4L287.37,138.21z M278.27,121.85c-2.15,0-4.08,2.33-4.53,6.39
			c2.36-0.03,4.62-0.07,7.06-0.15c0.79-0.03,1.09-0.19,1.09-1.02C281.94,124.46,280.56,121.85,278.27,121.85z"/>
		<path class="st8" d="M312.45,120.62c1.26-0.56,2.26-0.81,3.14-0.81c5.95,0,10.24,4.94,10.24,10.78c0,7.12-5.95,13.02-13.13,13
			c-2.69,0-5.38-0.51-8.65-1.84c0.03-1.26,0.03-2.67,0.03-3.98v-23.95c0-3-0.25-3.37-3.25-3.59v-1.59c2.56-0.27,6.45-1,8.94-1.73
			c0,1.82,0,3.76,0,5.67v9.23L312.45,120.62z M309.78,137.26c0,0.75,0.12,1.31,0.29,1.75c0.41,0.94,2.04,2.49,4.12,2.49
			c3.29,0,5.35-3.28,5.35-9.37c0-6.28-3.32-9.13-6.79-9.13c-1.21,0-2.13,0.26-2.97,0.57V137.26z"/>
		<path class="st8" d="M348.72,138.21c-3.16,4.41-7.07,5.38-9.03,5.38c-6.62,0-10.46-5.07-10.46-11.06c0-3.53,1.52-6.95,3.65-9.09
			c2.24-2.33,5.08-3.62,7.83-3.62c4.8,0,8.23,4.02,8.2,8.17c-0.02,0.92-0.1,1.64-0.79,1.82c-0.99,0.24-7.95,0.63-13.28,0.83
			c0.08,5.91,3.5,8.68,7.15,8.68c2.02,0,4-0.77,5.85-2.4L348.72,138.21z M339.62,121.85c-2.15,0-4.08,2.33-4.53,6.39
			c2.36-0.03,4.62-0.07,7.06-0.15c0.79-0.03,1.09-0.19,1.09-1.02C343.3,124.46,341.91,121.85,339.62,121.85z"/>
		<path class="st8" d="M377.48,141.67c-1.17,0.2-5.56,0.82-9.26,1.95c0-1,0-2.04,0-3.08c-0.92,0.59-2.21,1.34-3.13,1.94
			c-1.51,0.91-2.49,1.11-3.07,1.11c-4.25,0-10.15-3.85-10.15-11.29c0-7.02,6.19-12.49,13.8-12.49c0.48,0,1.63,0.04,2.54,0.3v-6.44
			c0-2.9-0.29-3.1-3.61-3.47v-1.56c3.08-0.36,7.01-1.04,9.33-1.73c0,1.95,0,3.9,0,6.06v23.77c0,2.72,0.32,3.01,2.24,3.21l1.3,0.13
			V141.67z M368.22,124.57c-0.78-1.55-2.4-2.57-4.36-2.57c-1.88,0-5.62,1.27-5.62,8.64c0,6.5,3.76,9.23,6.39,9.29
			c1.24,0,2.43-0.42,3.59-1.21V124.57z"/>
	</g>
</g>
<path class="st9" d="M154.82,602.74c0,79.42-64.38,143.8-143.8,143.8c-3.71,0-7.38-0.14-11.02-0.42V459.36
	c3.64-0.28,7.31-0.42,11.02-0.42C90.44,458.94,154.82,523.32,154.82,602.74z"/>
<path class="st10" d="M143.29,602.74c0,73.05-59.22,132.27-132.27,132.27c-3.71,0-7.39-0.15-11.02-0.46V470.93
	c3.63-0.31,7.31-0.46,11.02-0.46C84.07,470.47,143.29,529.69,143.29,602.74z"/>
<path class="st11" d="M595.28,0.42v89.31H427.65c-9.94,0-18-8.06-18-18V0.42H595.28z"/>
<path class="st1" d="M346.82,367.94v21.07c-4.19-1.66-7.14-5.75-7.14-10.53c0-3.12,1.26-5.96,3.32-8.01
	C344.07,369.38,345.37,368.53,346.82,367.94z"/>
<path class="st1" d="M346.82,623.37v21.07c-4.19-1.66-7.14-5.75-7.14-10.53c0-3.12,1.26-5.96,3.32-8.01
	C344.07,624.81,345.37,623.95,346.82,623.37z"/>
<g>
	<g>
		<path class="st8" d="M100.82,212.53c-0.17,0.9-1.04,3.92-1.33,4.81H86v-0.81c2.64-0.26,2.87-0.41,2.87-2.87v-11.52
			c0-2.47-0.29-2.61-2.61-2.84v-0.81h7.77v0.81c-2.32,0.23-2.64,0.35-2.64,2.84v11.81c0,1.77,0.23,2.18,1.89,2.2
			c0.03,0,2.12,0.03,2.29,0.03c1.48,0,1.91-0.17,2.58-0.9c0.73-0.75,1.33-1.91,1.77-2.99L100.82,212.53z"/>
		<path class="st8" d="M116.42,216.68c-1.39,0.2-2.96,0.58-4.44,1.02c0-0.46,0-1.51,0-2.23c-1.57,1.31-2.84,2.23-4.44,2.23
			c-1.94,0-3.63-1.19-3.63-4.35v-5.63c0-1.57-0.23-1.74-0.96-1.89l-0.81-0.15v-0.75c1.25-0.06,3.16-0.35,4.15-0.52
			c-0.09,0.93-0.09,2.32-0.09,4.23v3.94c0,2.55,1.33,3.28,2.64,3.28c1.07,0,2.15-0.46,3.13-1.39v-6.76c0-1.57-0.35-1.77-1.33-1.91
			l-0.93-0.12v-0.75c1.86-0.09,3.89-0.41,4.55-0.52v9.72c0,1.45,0.23,1.65,1.33,1.71l0.81,0.03V216.68z"/>
		<path class="st8" d="M131.97,217.35c-1.57,0-3.28,0.03-3.89,0.06c-0.17-0.2-4.73-5.6-4.9-5.77c-0.41-0.46-0.58-0.61-0.84-0.61
			c-0.12,0-0.35,0-0.52,0.06v3.22c0,1.94,0.15,2.06,2.03,2.23v0.81h-6.41v-0.81c1.94-0.17,2.09-0.38,2.09-2.23v-13.87
			c0-1.89-0.2-1.94-2-2.2v-0.75c1.51-0.15,3.25-0.58,4.29-0.99c0,1.25,0,2.44,0,3.68v10.15c0.87-0.2,1.42-0.55,1.86-1.02
			c0.67-0.67,1.74-1.97,2.23-2.7c0.61-0.84,0.38-1.07-1.02-1.19v-0.81l5.98-0.26v0.78c-2.03,0.32-2.61,0.55-3.86,1.86
			c-0.55,0.58-1.86,2.06-2.47,2.81c0.58,0.81,3.54,4.18,4.5,5.19c1.39,1.39,1.8,1.48,2.93,1.54V217.35z"/>
		<path class="st8" d="M142.72,214.88c-1.86,2.32-3.89,2.81-4.81,2.81c-3.54,0-5.69-2.9-5.69-6.24c0-1.97,0.7-3.8,1.89-5.08
			c1.22-1.36,2.81-2.12,4.32-2.12c2.52,0,4.44,2.18,4.44,4.5c-0.03,0.58-0.12,0.84-0.58,0.96c-0.58,0.12-4.29,0.38-7.74,0.49
			c-0.09,3.89,2.29,5.48,4.35,5.48c1.19,0,2.29-0.49,3.36-1.48L142.72,214.88z M137.73,205.37c-1.33,0-2.64,1.25-3.05,3.6
			c1.62,0,3.25,0,4.96-0.09c0.52,0,0.7-0.15,0.7-0.58C140.37,206.76,139.36,205.37,137.73,205.37z"/>
		<path class="st8" d="M161.78,202.9c-0.49-1.91-1.31-3.8-4.03-3.8c-2.26,0-3.05,1.65-3.05,3.16c0,2,1.28,3.02,3.68,4.26
			c3.48,1.8,4.99,3.13,4.99,5.89c0,3.05-2.64,5.37-6.38,5.37c-1.74,0-3.25-0.49-4.44-0.96c-0.23-0.81-0.58-2.78-0.78-4.35l0.9-0.23
			c0.58,1.94,1.86,4.47,4.87,4.47c2.09,0,3.36-1.45,3.36-3.34c0-2.23-1.19-3.13-3.74-4.52c-3.05-1.65-4.76-3.05-4.76-5.74
			c0-2.58,2.15-5.02,5.98-5.02c1.62,0,3.22,0.44,3.83,0.55c0.12,1.04,0.23,2.2,0.46,4.09L161.78,202.9z"/>
		<path class="st8" d="M181.55,217.35v-0.81c1.71-0.17,1.91-0.29,1.91-2.32v-4.84c0-2.06-0.7-3.36-2.49-3.36
			c-1.1,0-2.12,0.61-3.22,1.51c0.03,0.35,0.09,0.7,0.09,1.25v5.63c0,1.83,0.26,1.97,1.86,2.15v0.81h-6.21v-0.81
			c1.8-0.17,2.06-0.29,2.06-2.2v-4.99c0-2.15-0.67-3.34-2.44-3.34c-1.16,0-2.29,0.78-3.19,1.51v6.82c0,1.91,0.2,2.03,1.86,2.2v0.81
			h-6.24v-0.81c1.91-0.17,2.09-0.29,2.09-2.2v-6c0-1.86-0.12-1.97-1.74-2.26v-0.73c1.36-0.2,2.73-0.58,4.03-1.16
			c0,0.7,0,1.65,0,2.35c0.61-0.46,1.22-0.96,2.15-1.51c0.73-0.46,1.36-0.75,2.29-0.75c1.39,0,2.58,0.87,3.16,2.38
			c0.81-0.64,1.57-1.13,2.29-1.62c0.64-0.41,1.45-0.75,2.29-0.75c2.26,0,3.65,1.62,3.65,4.47v5.6c0,1.94,0.17,2.03,1.83,2.2v0.81
			H181.55z"/>
		<path class="st8" d="M189.29,217.35v-0.81c1.83-0.17,2.03-0.32,2.03-2.29v-5.98c0-1.8-0.09-1.91-1.83-2.2v-0.7
			c1.51-0.26,2.87-0.64,4.12-1.16c0,1.22,0,2.44,0,3.65v6.38c0,1.97,0.2,2.12,2.09,2.29v0.81H189.29z M192.31,201.36
			c-0.81,0-1.54-0.73-1.54-1.54c0-0.93,0.73-1.6,1.57-1.6c0.81,0,1.48,0.67,1.48,1.6C193.82,200.64,193.15,201.36,192.31,201.36z"/>
		<path class="st8" d="M202.87,217.32c-0.49,0.26-0.96,0.38-1.25,0.38c-1.86,0-2.84-1.13-2.84-3.45v-8.44h-2l-0.12-0.35l0.78-0.84
			h1.33v-2.44c0.55-0.58,1.39-1.33,1.94-1.91l0.44,0.06c-0.06,1.22-0.09,2.9-0.09,4.29h3.31c0.26,0.29,0.17,0.93-0.17,1.19h-3.13
			v7.43c0,2.35,0.93,2.78,1.68,2.78c0.7,0,1.36-0.26,1.77-0.46l0.26,0.75L202.87,217.32z"/>
		<path class="st8" d="M213.97,217.35v-0.81c1.68-0.17,1.91-0.32,1.91-2.23v-4.76c0-2.41-0.93-3.63-2.87-3.6
			c-1.1,0-2.26,0.55-3.07,1.51v6.85c0,1.89,0.23,2.06,1.97,2.23v0.81h-6.32v-0.81c1.68-0.15,2.06-0.29,2.06-2.23v-13.98
			c0-1.54-0.09-1.91-2.03-2.09v-0.75c1.54-0.15,3.28-0.58,4.32-0.99c0,1.13,0,2.41,0,3.6v6.29c1.04-1.04,2.64-2.12,4.21-2.12
			c2.38,0,4.03,1.48,4.03,4.96v5.11c0,1.91,0.23,2.06,1.91,2.2v0.81H213.97z"/>
	</g>
</g>
</svg>
