<?xml version="1.0" encoding="utf-8"?>
<!-- Generator: Adobe Illustrator 24.1.1, SVG Export Plug-In . SVG Version: 6.00 Build 0)  -->
<svg version="1.1" id="Livello_1" xmlns="http://www.w3.org/2000/svg" xmlns:xlink="http://www.w3.org/1999/xlink" x="0px" y="0px"
	 viewBox="0 0 595.3 841.9" style="enable-background:new 0 0 595.3 841.9;" xml:space="preserve">
<style type="text/css">
	.st0{stroke:#000000;stroke-miterlimit:10;}
	.st1{fill:#FFFFFF;}
</style>
<path class="st0" d="M533.4,478.9h-436c-24.6,0-44.6-20-44.6-44.6V315.5c0-24.6,20-44.6,44.6-44.6h436c24.6,0,44.6,20,44.6,44.6
	v118.7C578,458.9,558,478.9,533.4,478.9z"/>
<path class="st1" d="M74.6,307.5v27.7h8.7v-19h19v-8.6L74.6,307.5L74.6,307.5z M114.4,400.1c-6,0-10.8,4.9-10.8,10.8
	c0,6,4.8,10.8,10.8,10.8s10.8-4.9,10.8-10.8S120.4,400.1,114.4,400.1z M114.4,360c-6,0-10.8,4.9-10.8,10.8s4.8,10.8,10.8,10.8
	s10.8-4.9,10.8-10.8S120.4,360,114.4,360z M114.4,319.9c-6,0-10.8,4.9-10.8,10.8c0,6,4.8,10.8,10.8,10.8s10.8-4.9,10.8-10.8
	C125.2,324.7,120.4,319.9,114.4,319.9z M173.6,307.5v8.6h19v19h8.7v-27.7H173.6z M192.6,406.5v19h-19v8.6h27.7v-27.7H192.6z
	 M161.5,319.9c-6,0-10.8,4.9-10.8,10.8c0,6,4.9,10.8,10.8,10.8s10.8-4.9,10.8-10.8C172.4,324.7,167.5,319.9,161.5,319.9z M161.5,360
	c-6,0-10.8,4.9-10.8,10.8s4.9,10.8,10.8,10.8s10.8-4.9,10.8-10.8S167.5,360,161.5,360z M161.5,400.1c-6,0-10.8,4.9-10.8,10.8
	c0,6,4.9,10.8,10.8,10.8s10.8-4.9,10.8-10.8S167.5,400.1,161.5,400.1z M83.3,425.5v-19h-8.7v27.7h27.7v-8.6L83.3,425.5L83.3,425.5z"
	/>
<ellipse transform="matrix(0.2298 -0.9732 0.9732 0.2298 -311.8976 427.8388)" class="st1" cx="114.4" cy="411" rx="10.8" ry="10.8"/>
<ellipse transform="matrix(0.7071 -0.7071 0.7071 0.7071 -228.7183 189.4896)" class="st1" cx="114.4" cy="370.8" rx="10.8" ry="10.8"/>
<ellipse transform="matrix(0.2298 -0.9732 0.9732 0.2298 -233.7977 366.0497)" class="st1" cx="114.4" cy="330.7" rx="10.8" ry="10.8"/>
<path class="st1" d="M172.4,411c0,6-4.9,10.8-10.8,10.8s-10.8-4.9-10.8-10.8c0-6,4.9-10.8,10.8-10.8
	C167.5,400.1,172.4,405,172.4,411z"/>
<path class="st1" d="M172.4,370.8c0,6-4.9,10.8-10.8,10.8s-10.8-4.9-10.8-10.8s4.8-10.8,10.8-10.8
	C167.5,360,172.4,364.9,172.4,370.8z"/>
<path class="st1" d="M172.4,330.7c0,6-4.9,10.8-10.8,10.8s-10.8-4.9-10.8-10.8c0-6,4.9-10.8,10.8-10.8S172.4,324.7,172.4,330.7z"/>
<polygon class="st1" points="102.3,307.5 102.3,316.2 83.3,316.2 83.3,335.2 74.6,335.2 74.6,307.5 "/>
<polygon class="st1" points="102.3,425.5 102.3,434.2 74.6,434.2 74.6,406.5 83.3,406.5 83.3,425.5 "/>
<polygon class="st1" points="201.3,406.5 201.3,434.2 173.6,434.2 173.6,425.5 192.6,425.5 192.6,406.5 "/>
<polygon class="st1" points="201.3,307.5 201.3,335.2 192.6,335.2 192.6,316.2 173.6,316.2 173.6,307.5 "/>
<ellipse transform="matrix(0.2298 -0.9732 0.9732 0.2298 -311.8974 427.8386)" class="st1" cx="114.4" cy="411" rx="10.8" ry="10.8"/>
<ellipse transform="matrix(0.7071 -0.7071 0.7071 0.7071 -228.7183 189.4896)" class="st1" cx="114.4" cy="370.8" rx="10.8" ry="10.8"/>
<ellipse transform="matrix(0.2298 -0.9732 0.9732 0.2298 -233.7975 366.0495)" class="st1" cx="114.4" cy="330.7" rx="10.8" ry="10.8"/>
<path class="st1" d="M172.4,411c0,6-4.9,10.8-10.8,10.8s-10.8-4.9-10.8-10.8c0-6,4.9-10.8,10.8-10.8
	C167.5,400.1,172.4,405,172.4,411z"/>
<path class="st1" d="M172.4,370.8c0,6-4.9,10.8-10.8,10.8s-10.8-4.9-10.8-10.8s4.8-10.8,10.8-10.8
	C167.5,360,172.4,364.9,172.4,370.8z"/>
<path class="st1" d="M172.4,330.7c0,6-4.9,10.8-10.8,10.8s-10.8-4.9-10.8-10.8c0-6,4.9-10.8,10.8-10.8S172.4,324.7,172.4,330.7z"/>
<ellipse transform="matrix(0.7071 -0.7071 0.7071 0.7071 -228.7183 189.4896)" class="st1" cx="114.4" cy="370.8" rx="10.8" ry="10.8"/>
<path class="st1" d="M172.4,370.8c0,6-4.9,10.8-10.8,10.8s-10.8-4.9-10.8-10.8s4.8-10.8,10.8-10.8
	C167.5,360,172.4,364.9,172.4,370.8z"/>
<path class="st1" d="M172.4,411c0,6-4.9,10.8-10.8,10.8s-10.8-4.9-10.8-10.8c0-6,4.9-10.8,10.8-10.8
	C167.5,400.1,172.4,405,172.4,411z"/>
<path class="st1" d="M172.4,330.7c0,6-4.9,10.8-10.8,10.8s-10.8-4.9-10.8-10.8c0-6,4.9-10.8,10.8-10.8S172.4,324.7,172.4,330.7z"/>
<ellipse transform="matrix(0.2298 -0.9732 0.9732 0.2298 -311.8976 427.8388)" class="st1" cx="114.4" cy="411" rx="10.8" ry="10.8"/>
<ellipse transform="matrix(0.2298 -0.9732 0.9732 0.2298 -233.7977 366.0497)" class="st1" cx="114.4" cy="330.7" rx="10.8" ry="10.8"/>
<g>
	<g>
		<path class="st1" d="M264.5,416.7v5.3h-25.1V383h6.5v33.8H264.5z"/>
		<path class="st1" d="M290.6,418c-1,1.5-2.2,2.6-3.6,3.4c-1.4,0.8-3,1.2-4.8,1.2c-1.5,0-2.9-0.2-4.1-0.7s-2.3-1.2-3.2-2.2
			c-0.9-1-1.6-2.3-2-3.9c-0.5-1.6-0.7-3.4-0.7-5.6V393h6.4v17.3c0,1.3,0.1,2.5,0.3,3.4c0.2,0.9,0.5,1.6,0.9,2.2c0.4,0.6,1,1,1.6,1.2
			c0.7,0.2,1.4,0.4,2.3,0.4c0.9,0,1.8-0.1,2.5-0.3c0.7-0.2,1.4-0.5,1.9-0.9c0.5-0.3,0.9-0.7,1.2-1.1c0.4-0.4,0.7-0.9,0.9-1.5V393
			h6.5v29.1H291L290.6,418z"/>
		<path class="st1" d="M319.9,417.1c0.7-0.2,1.4-0.6,2-1c0.5-0.5,1-1,1.3-1.6c0.3-0.6,0.5-1.3,0.5-2h6c0,1.4-0.3,2.7-1,4
			c-0.6,1.2-1.5,2.3-2.6,3.2c-1.1,0.9-2.4,1.7-3.9,2.2s-3,0.8-4.6,0.8c-2.2,0-4.2-0.4-5.9-1.2c-1.7-0.8-3.1-1.8-4.2-3.2
			c-1.1-1.3-2-2.9-2.5-4.6c-0.6-1.8-0.9-3.6-0.9-5.6v-0.9c0-2,0.3-3.9,0.9-5.6c0.6-1.8,1.4-3.3,2.5-4.6c1.1-1.3,2.5-2.4,4.2-3.2
			s3.6-1.2,5.8-1.2c1.8,0,3.4,0.3,4.9,0.8s2.8,1.3,3.9,2.3s1.9,2.1,2.5,3.5s0.9,2.8,0.9,4.4h-6c0-0.8-0.1-1.5-0.4-2.2
			s-0.7-1.3-1.3-1.8c-0.5-0.5-1.2-0.9-2-1.2c-0.8-0.3-1.6-0.5-2.5-0.5c-1.3,0-2.5,0.3-3.3,0.8c-0.9,0.5-1.6,1.3-2.1,2.1
			c-0.5,0.9-0.9,1.9-1.2,3s-0.3,2.3-0.3,3.4v0.9c0,1.2,0.1,2.3,0.3,3.5c0.2,1.1,0.6,2.1,1.1,3c0.5,0.9,1.2,1.6,2.1,2.1
			c0.9,0.5,2,0.8,3.4,0.8C318.4,417.4,319.2,417.3,319.9,417.1z"/>
		<path class="st1" d="M344.5,412.7v9.4H338v-41.3h6.5v24.3l2.7-3l8.7-9.1h7.7l-11.3,12.1l12.9,17h-8l-9.3-12.6L344.5,412.7z"/>
		<path class="st1" d="M372.8,433.6c-0.6-0.1-1.1-0.2-1.6-0.3l0.9-5c0.4,0,0.8,0,1.2,0.1s0.8,0,1.1,0c0.6,0,1.2-0.2,1.7-0.5
			s0.9-0.8,1.3-1.3c0.4-0.5,0.6-0.9,0.9-1.2s0.4-0.7,0.6-1.1l1.8-3.5L368.4,393h7.1l7.2,17.8l1,3.2l1.2-3.1l7-17.8h7.1l-14.7,33.5
			c-0.3,0.8-0.8,1.5-1.3,2.4s-1.1,1.6-1.9,2.4c-0.8,0.7-1.7,1.4-2.7,1.8s-2.3,0.7-3.7,0.7C374,433.8,373.4,433.7,372.8,433.6z"/>
		<path class="st1" d="M443.3,406.9v15.2h-6.5V383h12.4c2,0,3.9,0.3,5.6,0.8c1.7,0.5,3.2,1.2,4.4,2.2c1.2,1,2.2,2.2,2.9,3.7
			c0.7,1.5,1,3.2,1,5.1c0,1.3-0.2,2.6-0.5,3.6c-0.4,1.1-0.8,2.1-1.5,3c-0.6,0.9-1.4,1.6-2.3,2.3s-1.9,1.2-2.9,1.7l8.4,16.4v0.4h-6.9
			l-7.5-15.2L443.3,406.9L443.3,406.9z M449.4,401.6c1.1,0,2.2-0.2,3.1-0.5s1.7-0.8,2.4-1.4c0.6-0.5,1-1.2,1.3-2
			c0.3-0.8,0.5-1.7,0.5-2.7c0-1.1-0.2-2.1-0.5-3c-0.4-0.9-0.9-1.6-1.5-2.1c-0.6-0.5-1.4-0.9-2.3-1.2c-0.9-0.3-1.9-0.4-3-0.4h-6v13.4
			H449.4z"/>
		<path class="st1" d="M469.7,401.4c0.6-1.8,1.5-3.4,2.7-4.7c1.1-1.3,2.5-2.4,4.2-3.1c1.7-0.8,3.6-1.1,5.7-1.1s4,0.4,5.7,1.1
			s3.1,1.8,4.3,3.1c1.1,1.3,2,2.9,2.6,4.7c0.6,1.8,0.9,3.8,0.9,5.9v0.6c0,2.1-0.3,4.1-0.9,5.9c-0.6,1.8-1.5,3.4-2.6,4.7
			c-1.1,1.3-2.6,2.4-4.2,3.1c-1.7,0.8-3.6,1.1-5.7,1.1c-2.1,0-4-0.4-5.7-1.1s-3.1-1.8-4.2-3.1c-1.2-1.3-2-2.9-2.7-4.7
			c-0.6-1.8-0.9-3.8-0.9-5.9v-0.6C468.8,405.1,469.1,403.2,469.7,401.4z M475.6,411.5c0.3,1.2,0.7,2.2,1.3,3.1
			c0.6,0.9,1.3,1.6,2.2,2.1c0.9,0.5,2,0.8,3.2,0.8c1.2,0,2.3-0.3,3.1-0.8c0.9-0.5,1.6-1.2,2.2-2.1c0.6-0.9,1-1.9,1.3-3.1
			s0.4-2.4,0.4-3.7v-0.6c0-1.3-0.1-2.5-0.4-3.6c-0.3-1.2-0.7-2.2-1.3-3.1c-0.6-0.9-1.3-1.6-2.2-2.1c-0.9-0.5-2-0.8-3.2-0.8
			c-1.2,0-2.3,0.3-3.2,0.8s-1.6,1.2-2.2,2.1c-0.6,0.9-1,1.9-1.3,3.1c-0.3,1.2-0.4,2.4-0.4,3.6v0.6
			C475.2,409.1,475.4,410.4,475.6,411.5z"/>
		<path class="st1" d="M519.9,380.8v35.9h8.8v5.3h-24.5v-5.3h9.2v-30.6h-9.2v-5.3H519.9z"/>
		<path class="st1" d="M552.9,380.8v35.9h8.8v5.3h-24.5v-5.3h9.2v-30.6h-9.2v-5.3H552.9z"/>
	</g>
</g>
</svg>
