<?xml version="1.0" encoding="utf-8"?>
<!-- Generator: Adobe Illustrator 24.1.1, SVG Export Plug-In . SVG Version: 6.00 Build 0)  -->
<svg version="1.1" id="Livello_1" xmlns="http://www.w3.org/2000/svg" xmlns:xlink="http://www.w3.org/1999/xlink" x="0px" y="0px"
	 viewBox="0 0 595.3 841.9" style="enable-background:new 0 0 595.3 841.9;" xml:space="preserve">
<style type="text/css">
	.st0{fill:#353535;}
	.st1{fill:#5A5AB9;}
</style>
<path class="st0" d="M128.5,343v21.5h6.7v-14.8H150V343H128.5z M159.4,414.8c-4.6,0-8.4,3.8-8.4,8.4c0,4.6,3.8,8.4,8.4,8.4
	c4.6,0,8.4-3.8,8.4-8.4C167.8,418.6,164,414.8,159.4,414.8z M159.4,383.7c-4.6,0-8.4,3.8-8.4,8.4s3.8,8.4,8.4,8.4
	c4.6,0,8.4-3.8,8.4-8.4S164,383.7,159.4,383.7z M159.4,352.6c-4.6,0-8.4,3.8-8.4,8.4s3.8,8.4,8.4,8.4c4.6,0,8.4-3.8,8.4-8.4
	S164,352.6,159.4,352.6z M205.4,343v6.7h14.8v14.8h6.7V343H205.4z M220.1,419.8v14.8h-14.8v6.7h21.5v-21.5H220.1z M196,352.6
	c-4.6,0-8.4,3.8-8.4,8.4s3.8,8.4,8.4,8.4c4.6,0,8.4-3.8,8.4-8.4S200.6,352.6,196,352.6z M196,383.7c-4.6,0-8.4,3.8-8.4,8.4
	s3.8,8.4,8.4,8.4c4.6,0,8.4-3.8,8.4-8.4S200.6,383.7,196,383.7z M196,414.8c-4.6,0-8.4,3.8-8.4,8.4c0,4.6,3.8,8.4,8.4,8.4
	c4.6,0,8.4-3.8,8.4-8.4C204.4,418.6,200.6,414.8,196,414.8z M135.3,434.5v-14.8h-6.7v21.5H150v-6.7H135.3z"/>
<ellipse transform="matrix(0.2298 -0.9732 0.9732 0.2298 -289.1162 481.1217)" class="st0" cx="159.4" cy="423.2" rx="8.4" ry="8.4"/>
<circle class="st0" cx="159.4" cy="392.1" r="8.4"/>
<ellipse transform="matrix(0.2298 -0.9732 0.9732 0.2298 -228.5288 433.1716)" class="st0" cx="159.4" cy="361" rx="8.4" ry="8.4"/>
<path class="st0" d="M204.4,423.2c0,4.6-3.8,8.4-8.4,8.4c-4.6,0-8.4-3.8-8.4-8.4c0-4.6,3.8-8.4,8.4-8.4
	C200.6,414.8,204.4,418.6,204.4,423.2z"/>
<path class="st0" d="M204.4,392.1c0,4.6-3.8,8.4-8.4,8.4c-4.6,0-8.4-3.8-8.4-8.4s3.8-8.4,8.4-8.4
	C200.6,383.7,204.4,387.4,204.4,392.1z"/>
<path class="st0" d="M204.4,361c0,4.6-3.8,8.4-8.4,8.4c-4.6,0-8.4-3.8-8.4-8.4s3.8-8.4,8.4-8.4C200.6,352.6,204.4,356.3,204.4,361z"
	/>
<polygon class="st1" points="150,343 150,349.7 135.3,349.7 135.3,364.4 128.5,364.4 128.5,343 "/>
<polygon class="st1" points="150,434.5 150,441.2 128.5,441.2 128.5,419.8 135.3,419.8 135.3,434.5 "/>
<polygon class="st1" points="226.8,419.8 226.8,441.2 205.4,441.2 205.4,434.5 220.1,434.5 220.1,419.8 "/>
<polygon class="st1" points="226.8,343 226.8,364.4 220.1,364.4 220.1,349.7 205.4,349.7 205.4,343 "/>
<ellipse transform="matrix(0.2298 -0.9732 0.9732 0.2298 -289.1163 481.1214)" class="st0" cx="159.4" cy="423.2" rx="8.4" ry="8.4"/>
<circle class="st0" cx="159.4" cy="392.1" r="8.4"/>
<ellipse transform="matrix(0.2298 -0.9732 0.9732 0.2298 -228.5288 433.1714)" class="st0" cx="159.4" cy="361" rx="8.4" ry="8.4"/>
<path class="st0" d="M204.4,423.2c0,4.6-3.8,8.4-8.4,8.4c-4.6,0-8.4-3.8-8.4-8.4c0-4.6,3.8-8.4,8.4-8.4
	C200.6,414.8,204.4,418.6,204.4,423.2z"/>
<path class="st0" d="M204.4,392.1c0,4.6-3.8,8.4-8.4,8.4c-4.6,0-8.4-3.8-8.4-8.4s3.8-8.4,8.4-8.4
	C200.6,383.7,204.4,387.4,204.4,392.1z"/>
<path class="st0" d="M204.4,361c0,4.6-3.8,8.4-8.4,8.4c-4.6,0-8.4-3.8-8.4-8.4s3.8-8.4,8.4-8.4C200.6,352.6,204.4,356.3,204.4,361z"
	/>
<circle class="st0" cx="159.4" cy="392.1" r="8.4"/>
<path class="st0" d="M204.4,392.1c0,4.6-3.8,8.4-8.4,8.4c-4.6,0-8.4-3.8-8.4-8.4s3.8-8.4,8.4-8.4
	C200.6,383.7,204.4,387.4,204.4,392.1z"/>
<path class="st0" d="M204.4,423.2c0,4.6-3.8,8.4-8.4,8.4c-4.6,0-8.4-3.8-8.4-8.4c0-4.6,3.8-8.4,8.4-8.4
	C200.6,414.8,204.4,418.6,204.4,423.2z"/>
<path class="st0" d="M204.4,361c0,4.6-3.8,8.4-8.4,8.4c-4.6,0-8.4-3.8-8.4-8.4s3.8-8.4,8.4-8.4C200.6,352.6,204.4,356.3,204.4,361z"
	/>
<ellipse transform="matrix(0.2298 -0.9732 0.9732 0.2298 -289.1162 481.1217)" class="st0" cx="159.4" cy="423.2" rx="8.4" ry="8.4"/>
<ellipse transform="matrix(0.2298 -0.9732 0.9732 0.2298 -228.5288 433.1716)" class="st0" cx="159.4" cy="361" rx="8.4" ry="8.4"/>
<g>
	<g>
		<path d="M275.9,427.7v4.1h-19.5v-30.3h5v26.2H275.9z"/>
		<path d="M296.1,428.7c-0.8,1.1-1.7,2-2.8,2.6c-1.1,0.6-2.3,0.9-3.7,0.9c-1.2,0-2.2-0.2-3.2-0.6c-1-0.4-1.8-0.9-2.5-1.7
			c-0.7-0.8-1.2-1.8-1.6-3s-0.6-2.7-0.6-4.4v-13.4h5v13.4c0,1,0.1,1.9,0.2,2.6c0.2,0.7,0.4,1.3,0.7,1.7c0.3,0.4,0.8,0.7,1.3,0.9
			c0.5,0.2,1.1,0.3,1.8,0.3c0.7,0,1.4-0.1,1.9-0.2c0.6-0.2,1.1-0.4,1.5-0.7c0.4-0.3,0.7-0.5,1-0.9c0.3-0.3,0.5-0.7,0.7-1.1v-16h5
			v22.5h-4.5L296.1,428.7z"/>
		<path d="M318.9,428c0.6-0.2,1.1-0.5,1.5-0.8c0.4-0.3,0.8-0.8,1-1.2c0.3-0.5,0.4-1,0.4-1.6h4.7c0,1.1-0.2,2.1-0.7,3.1
			c-0.5,1-1.2,1.8-2.1,2.5c-0.9,0.7-1.9,1.3-3,1.7c-1.1,0.4-2.3,0.6-3.6,0.6c-1.7,0-3.3-0.3-4.6-0.9s-2.4-1.4-3.2-2.4
			c-0.9-1-1.5-2.2-2-3.6c-0.4-1.4-0.7-2.8-0.7-4.4v-0.7c0-1.5,0.2-3,0.7-4.4c0.4-1.4,1.1-2.6,2-3.6c0.9-1,2-1.8,3.3-2.4
			c1.3-0.6,2.8-0.9,4.5-0.9c1.4,0,2.6,0.2,3.8,0.6c1.2,0.4,2.2,1,3,1.8c0.8,0.8,1.5,1.6,1.9,2.7c0.5,1,0.7,2.2,0.7,3.4h-4.7
			c0-0.6-0.1-1.2-0.3-1.7c-0.2-0.5-0.6-1-1-1.4c-0.4-0.4-0.9-0.7-1.5-1c-0.6-0.2-1.2-0.4-1.9-0.4c-1,0-1.9,0.2-2.6,0.6
			c-0.7,0.4-1.2,1-1.6,1.7c-0.4,0.7-0.7,1.5-0.9,2.3c-0.2,0.9-0.3,1.8-0.3,2.7v0.7c0,0.9,0.1,1.8,0.3,2.7c0.2,0.9,0.5,1.7,0.9,2.3
			c0.4,0.7,1,1.3,1.6,1.7c0.7,0.4,1.6,0.6,2.6,0.6C317.7,428.2,318.3,428.2,318.9,428z"/>
		<path d="M337.9,424.6v7.3h-5v-32h5v18.8l2.1-2.3l6.7-7.1h6l-8.8,9.4l10,13.1h-6.2l-7.2-9.8L337.9,424.6z"/>
		<path d="M359.9,440.8c-0.4-0.1-0.9-0.2-1.3-0.3l0.7-3.9c0.3,0,0.6,0,0.9,0.1c0.4,0,0.6,0,0.9,0c0.5,0,0.9-0.1,1.3-0.4
			c0.4-0.3,0.7-0.6,1-1c0.3-0.4,0.5-0.7,0.7-1c0.2-0.3,0.3-0.6,0.5-0.9l1.4-2.7l-9.6-21.5h5.5l5.6,13.8l0.8,2.5l0.9-2.4l5.4-13.8
			h5.5l-11.4,26c-0.3,0.6-0.6,1.2-1,1.9c-0.4,0.7-0.9,1.3-1.5,1.8c-0.6,0.6-1.3,1-2.1,1.4s-1.8,0.6-2.9,0.6
			C360.8,440.9,360.4,440.9,359.9,440.8z"/>
		<path d="M414.6,420.1v11.8h-5v-30.3h9.6c1.6,0,3,0.2,4.3,0.6c1.3,0.4,2.5,1,3.4,1.7c0.9,0.8,1.7,1.7,2.2,2.8
			c0.5,1.1,0.8,2.5,0.8,4c0,1-0.1,2-0.4,2.8c-0.3,0.8-0.6,1.6-1.1,2.3s-1.1,1.3-1.8,1.8c-0.7,0.5-1.4,1-2.3,1.3l6.5,12.7v0.3h-5.4
			l-5.8-11.8H414.6z M419.3,416c0.9,0,1.7-0.1,2.4-0.4c0.7-0.3,1.3-0.6,1.8-1.1c0.4-0.4,0.8-0.9,1-1.5c0.3-0.6,0.4-1.3,0.4-2.1
			c0-0.9-0.1-1.6-0.4-2.3c-0.3-0.7-0.7-1.2-1.2-1.7c-0.5-0.4-1.1-0.7-1.8-0.9s-1.5-0.3-2.3-0.3h-4.6V416H419.3z"/>
		<path d="M435.1,415.8c0.5-1.4,1.2-2.6,2.1-3.6c0.9-1,2-1.8,3.3-2.4s2.8-0.9,4.4-0.9s3.1,0.3,4.4,0.9s2.4,1.4,3.3,2.4
			c0.9,1,1.6,2.2,2,3.6c0.5,1.4,0.7,2.9,0.7,4.6v0.4c0,1.7-0.2,3.2-0.7,4.6c-0.5,1.4-1.2,2.6-2,3.6c-0.9,1-2,1.8-3.3,2.4
			s-2.8,0.9-4.4,0.9c-1.7,0-3.1-0.3-4.4-0.9s-2.4-1.4-3.3-2.4c-0.9-1-1.6-2.2-2.1-3.6c-0.5-1.4-0.7-2.9-0.7-4.6v-0.4
			C434.4,418.7,434.6,417.2,435.1,415.8z M439.7,423.7c0.2,0.9,0.6,1.7,1,2.4c0.4,0.7,1,1.2,1.7,1.6c0.7,0.4,1.5,0.6,2.5,0.6
			c0.9,0,1.7-0.2,2.4-0.6s1.3-0.9,1.7-1.6c0.4-0.7,0.8-1.5,1-2.4c0.2-0.9,0.3-1.9,0.3-2.9v-0.4c0-1-0.1-1.9-0.3-2.8
			c-0.2-0.9-0.5-1.7-1-2.4c-0.5-0.7-1-1.2-1.7-1.6c-0.7-0.4-1.5-0.6-2.5-0.6c-0.9,0-1.8,0.2-2.4,0.6s-1.3,0.9-1.7,1.6
			c-0.5,0.7-0.8,1.5-1,2.4c-0.2,0.9-0.3,1.8-0.3,2.8v0.4C439.4,421.8,439.5,422.8,439.7,423.7z"/>
		<path d="M474,399.8v27.9h6.8v4.1h-19v-4.1h7.1V404h-7.1v-4.1H474z"/>
		<path d="M499.6,399.8v27.9h6.8v4.1h-19v-4.1h7.1V404h-7.1v-4.1H499.6z"/>
	</g>
</g>
</svg>
