<?xml version="1.0" encoding="utf-8"?>
<!-- Generator: Adobe Illustrator 24.1.1, SVG Export Plug-In . SVG Version: 6.00 Build 0)  -->
<svg version="1.1" id="Livello_1" xmlns="http://www.w3.org/2000/svg" xmlns:xlink="http://www.w3.org/1999/xlink" x="0px" y="0px"
	 viewBox="0 0 595.28 841.89" style="enable-background:new 0 0 595.28 841.89;" xml:space="preserve">
<style type="text/css">
	.st0{fill:#353535;}
	.st1{fill:#5A5AB9;}
</style>
<path class="st0" d="M-105.74,233.79v45.8h14.32v-31.49h31.49v-14.32H-105.74z M-39.91,387.11c-9.9,0-17.92,8.02-17.92,17.92
	c0,9.9,8.02,17.92,17.92,17.92s17.92-8.02,17.92-17.92C-21.99,395.13-30.01,387.11-39.91,387.11z M-39.91,320.7
	c-9.9,0-17.92,8.02-17.92,17.92c0,9.9,8.02,17.92,17.92,17.92s17.92-8.02,17.92-17.92C-21.99,328.72-30.01,320.7-39.91,320.7z
	 M-39.91,254.3c-9.9,0-17.92,8.02-17.92,17.92c0,9.9,8.02,17.92,17.92,17.92s17.92-8.02,17.92-17.92
	C-21.99,262.32-30.01,254.3-39.91,254.3z M58.13,233.79v14.32h31.48v31.49h14.33v-45.8H58.13z M89.61,397.66v31.48H58.13v14.32h45.8
	v-45.8H89.61z M38.11,254.3c-9.9,0-17.93,8.02-17.93,17.92c0,9.9,8.03,17.92,17.93,17.92c9.9,0,17.92-8.02,17.92-17.92
	C56.04,262.32,48.01,254.3,38.11,254.3z M38.11,320.7c-9.9,0-17.93,8.02-17.93,17.92c0,9.9,8.03,17.92,17.93,17.92
	c9.9,0,17.92-8.02,17.92-17.92C56.04,328.72,48.01,320.7,38.11,320.7z M38.11,387.11c-9.9,0-17.93,8.02-17.93,17.92
	c0,9.9,8.03,17.92,17.93,17.92c9.9,0,17.92-8.02,17.92-17.92C56.04,395.13,48.01,387.11,38.11,387.11z M-91.42,429.14v-31.48h-14.32
	v45.8h45.8v-14.32H-91.42z"/>
<ellipse transform="matrix(0.2298 -0.9732 0.9732 0.2298 -424.9383 273.1328)" class="st0" cx="-39.91" cy="405.03" rx="17.92" ry="17.92"/>
<ellipse transform="matrix(0.7071 -0.7071 0.7071 0.7071 -251.1354 70.961)" class="st0" cx="-39.91" cy="338.63" rx="17.92" ry="17.92"/>
<ellipse transform="matrix(0.2298 -0.9732 0.9732 0.2298 -295.6813 170.8364)" class="st0" cx="-39.91" cy="272.22" rx="17.92" ry="17.92"/>
<path class="st0" d="M56.04,405.03c0,9.9-8.03,17.92-17.92,17.92c-9.9,0-17.93-8.02-17.93-17.92c0-9.9,8.03-17.92,17.93-17.92
	C48.01,387.11,56.04,395.13,56.04,405.03z"/>
<path class="st0" d="M56.04,338.63c0,9.9-8.03,17.92-17.92,17.92c-9.9,0-17.93-8.02-17.93-17.92c0-9.9,8.03-17.92,17.93-17.92
	C48.01,320.7,56.04,328.72,56.04,338.63z"/>
<path class="st0" d="M56.04,272.22c0,9.9-8.03,17.92-17.92,17.92c-9.9,0-17.93-8.02-17.93-17.92c0-9.9,8.03-17.92,17.93-17.92
	C48.01,254.3,56.04,262.32,56.04,272.22z"/>
<polygon class="st1" points="-59.93,233.79 -59.93,248.11 -91.42,248.11 -91.42,279.6 -105.74,279.6 -105.74,233.79 "/>
<polygon class="st1" points="-59.93,429.14 -59.93,443.46 -105.74,443.46 -105.74,397.66 -91.42,397.66 -91.42,429.14 "/>
<polygon class="st1" points="103.94,397.66 103.94,443.46 58.13,443.46 58.13,429.14 89.61,429.14 89.61,397.66 "/>
<polygon class="st1" points="103.94,233.79 103.94,279.6 89.61,279.6 89.61,248.11 58.13,248.11 58.13,233.79 "/>
<ellipse transform="matrix(0.2298 -0.9732 0.9732 0.2298 -424.9382 273.1326)" class="st0" cx="-39.91" cy="405.03" rx="17.92" ry="17.92"/>
<ellipse transform="matrix(0.7071 -0.7071 0.7071 0.7071 -251.1354 70.961)" class="st0" cx="-39.91" cy="338.63" rx="17.92" ry="17.92"/>
<ellipse transform="matrix(0.2298 -0.9732 0.9732 0.2298 -295.6812 170.8363)" class="st0" cx="-39.91" cy="272.22" rx="17.92" ry="17.92"/>
<path class="st0" d="M56.04,405.03c0,9.9-8.03,17.92-17.92,17.92c-9.9,0-17.93-8.02-17.93-17.92c0-9.9,8.03-17.92,17.93-17.92
	C48.01,387.11,56.04,395.13,56.04,405.03z"/>
<path class="st0" d="M56.04,338.63c0,9.9-8.03,17.92-17.92,17.92c-9.9,0-17.93-8.02-17.93-17.92c0-9.9,8.03-17.92,17.93-17.92
	C48.01,320.7,56.04,328.72,56.04,338.63z"/>
<path class="st0" d="M56.04,272.22c0,9.9-8.03,17.92-17.92,17.92c-9.9,0-17.93-8.02-17.93-17.92c0-9.9,8.03-17.92,17.93-17.92
	C48.01,254.3,56.04,262.32,56.04,272.22z"/>
<ellipse transform="matrix(0.7071 -0.7071 0.7071 0.7071 -251.1354 70.961)" class="st0" cx="-39.91" cy="338.63" rx="17.92" ry="17.92"/>
<path class="st0" d="M56.04,338.63c0,9.9-8.03,17.92-17.92,17.92c-9.9,0-17.93-8.02-17.93-17.92c0-9.9,8.03-17.92,17.93-17.92
	C48.01,320.7,56.04,328.72,56.04,338.63z"/>
<path class="st0" d="M56.04,405.03c0,9.9-8.03,17.92-17.92,17.92c-9.9,0-17.93-8.02-17.93-17.92c0-9.9,8.03-17.92,17.93-17.92
	C48.01,387.11,56.04,395.13,56.04,405.03z"/>
<path class="st0" d="M56.04,272.22c0,9.9-8.03,17.92-17.92,17.92c-9.9,0-17.93-8.02-17.93-17.92c0-9.9,8.03-17.92,17.93-17.92
	C48.01,254.3,56.04,262.32,56.04,272.22z"/>
<ellipse transform="matrix(0.2298 -0.9732 0.9732 0.2298 -424.9383 273.1328)" class="st0" cx="-39.91" cy="405.03" rx="17.92" ry="17.92"/>
<ellipse transform="matrix(0.2298 -0.9732 0.9732 0.2298 -295.6813 170.8364)" class="st0" cx="-39.91" cy="272.22" rx="17.92" ry="17.92"/>
<g>
	<g>
		<path d="M208.53,414.6v8.8h-41.61v-64.72h10.71v55.92H208.53z"/>
		<path d="M251.78,416.69c-1.63,2.4-3.62,4.28-5.96,5.62c-2.34,1.35-4.96,2.02-7.87,2.02c-2.49,0-4.76-0.39-6.82-1.18
			c-2.06-0.79-3.83-2.01-5.31-3.67c-1.45-1.66-2.58-3.79-3.38-6.38c-0.8-2.59-1.2-5.7-1.2-9.31v-28.49h10.62v28.58
			c0,2.22,0.16,4.08,0.49,5.58c0.33,1.5,0.84,2.69,1.56,3.58c0.71,0.92,1.61,1.57,2.71,1.96c1.1,0.39,2.39,0.58,3.87,0.58
			c1.54,0,2.92-0.17,4.13-0.51c1.21-0.34,2.28-0.81,3.2-1.4c0.77-0.53,1.45-1.16,2.04-1.89c0.59-0.73,1.1-1.53,1.51-2.42v-34.05
			h10.67v48.1h-9.65L251.78,416.69z"/>
		<path d="M300.3,415.16c1.23-0.4,2.32-0.97,3.27-1.71c0.92-0.74,1.65-1.61,2.2-2.62c0.55-1.01,0.82-2.12,0.82-3.33h10
			c0.03,2.34-0.5,4.54-1.58,6.6c-1.08,2.06-2.54,3.83-4.38,5.31c-1.87,1.54-4.01,2.75-6.42,3.62c-2.42,0.87-4.96,1.31-7.62,1.31
			c-3.7,0-6.94-0.64-9.71-1.93c-2.77-1.29-5.08-3.03-6.91-5.22c-1.87-2.19-3.27-4.75-4.22-7.67c-0.95-2.92-1.42-6.04-1.42-9.36
			v-1.56c0-3.29,0.47-6.4,1.4-9.33c0.93-2.93,2.33-5.5,4.2-7.69c1.87-2.19,4.19-3.93,6.96-5.22c2.77-1.29,5.99-1.93,9.67-1.93
			c2.9,0,5.59,0.44,8.07,1.33c2.47,0.89,4.6,2.13,6.38,3.73c1.78,1.6,3.16,3.51,4.16,5.73s1.47,4.67,1.45,7.33h-10
			c0-1.3-0.24-2.53-0.73-3.69s-1.18-2.16-2.07-3.02c-0.92-0.86-2.01-1.54-3.27-2.04c-1.26-0.5-2.62-0.76-4.07-0.76
			c-2.22,0-4.07,0.45-5.53,1.36c-1.47,0.9-2.63,2.08-3.49,3.53c-0.92,1.45-1.56,3.11-1.93,4.98c-0.37,1.87-0.56,3.76-0.56,5.69v1.56
			c0,1.96,0.18,3.88,0.56,5.76c0.37,1.88,1,3.53,1.89,4.96c0.86,1.48,2.03,2.67,3.51,3.56c1.48,0.89,3.33,1.33,5.56,1.33
			C297.79,415.76,299.07,415.56,300.3,415.16z"/>
		<path d="M340.9,407.93v15.47h-10.67v-68.28h10.67v40.18l4.4-4.89l14.36-15.11h12.8l-18.71,20.05l21.43,28.05h-13.16l-15.33-20.94
			L340.9,407.93z"/>
		<path d="M387.87,442.58c-0.93-0.16-1.83-0.35-2.69-0.56l1.47-8.31c0.59,0.03,1.27,0.07,2.02,0.11c0.76,0.04,1.37,0.07,1.84,0.07
			c1.04,0,1.97-0.3,2.8-0.91c0.83-0.61,1.56-1.3,2.18-2.07c0.59-0.77,1.07-1.45,1.44-2.04c0.37-0.59,0.72-1.22,1.04-1.87l3.02-5.73
			l-20.49-45.96h11.69l11.96,29.38l1.64,5.29l2-5.16l11.6-29.52h11.78l-24.4,55.39c-0.56,1.25-1.27,2.57-2.11,3.98
			c-0.84,1.41-1.91,2.7-3.18,3.89c-1.27,1.21-2.79,2.23-4.53,3.04c-1.75,0.81-3.79,1.22-6.13,1.22
			C389.79,442.83,388.8,442.75,387.87,442.58z"/>
		<path d="M504.57,398.29v25.12h-10.67v-64.72h20.54c3.35,0.03,6.43,0.46,9.25,1.29c2.82,0.83,5.25,2.04,7.29,3.65
			c2.02,1.63,3.59,3.65,4.71,6.07c1.13,2.42,1.69,5.24,1.69,8.47c0,2.22-0.29,4.24-0.87,6.05c-0.58,1.81-1.39,3.44-2.42,4.89
			c-1.04,1.45-2.28,2.73-3.73,3.82c-1.45,1.1-3.07,2.04-4.85,2.84l13.83,27.07v0.58h-11.42l-12.4-25.12H504.57z M514.58,389.58
			c1.9-0.03,3.61-0.32,5.13-0.87s2.82-1.34,3.89-2.38c0.95-0.89,1.69-1.98,2.22-3.29c0.53-1.3,0.8-2.79,0.8-4.44
			c0-1.87-0.29-3.5-0.87-4.91c-0.58-1.41-1.43-2.58-2.56-3.53c-1.04-0.89-2.3-1.56-3.78-2.02c-1.48-0.46-3.14-0.7-4.98-0.73h-9.87
			v22.18H514.58z"/>
		<path d="M548.23,389.2c1.01-2.98,2.47-5.56,4.4-7.76c1.9-2.19,4.22-3.91,6.98-5.16s5.9-1.87,9.42-1.87c3.53,0,6.67,0.62,9.45,1.87
			c2.77,1.24,5.12,2.96,7.04,5.16c1.9,2.19,3.35,4.78,4.36,7.76c1.01,2.98,1.51,6.22,1.51,9.71v0.93c0,3.53-0.5,6.77-1.51,9.73
			c-1.01,2.96-2.46,5.54-4.36,7.73c-1.9,2.19-4.23,3.91-7,5.16c-2.77,1.25-5.91,1.87-9.4,1.87c-3.53,0-6.68-0.62-9.47-1.87
			c-2.79-1.24-5.13-2.96-7.02-5.16c-1.93-2.19-3.39-4.77-4.4-7.73c-1.01-2.96-1.51-6.21-1.51-9.73v-0.93
			C546.71,395.41,547.22,392.18,548.23,389.2z M558.03,405.98c0.46,1.93,1.18,3.62,2.16,5.07c0.95,1.45,2.16,2.6,3.64,3.44
			c1.48,0.84,3.25,1.27,5.29,1.27c1.99,0,3.72-0.42,5.2-1.27c1.48-0.84,2.7-1.99,3.64-3.44c0.95-1.45,1.65-3.14,2.11-5.07
			c0.46-1.93,0.69-3.97,0.69-6.13v-0.93c0-2.1-0.24-4.12-0.71-6.05s-1.17-3.62-2.09-5.07c-0.98-1.45-2.2-2.61-3.67-3.47
			c-1.47-0.86-3.22-1.29-5.27-1.29c-2.02,0-3.76,0.43-5.22,1.29c-1.47,0.86-2.67,2.02-3.62,3.47c-0.98,1.45-1.7,3.14-2.16,5.07
			c-0.46,1.93-0.69,3.94-0.69,6.05v0.93C557.34,402.01,557.57,404.05,558.03,405.98z"/>
		<path d="M631.26,355.13v59.48h14.58v8.8h-40.5v-8.8h15.2v-50.63h-15.2v-8.85H631.26z"/>
		<path d="M685.89,355.13v59.48h14.58v8.8h-40.5v-8.8h15.2v-50.63h-15.2v-8.85H685.89z"/>
	</g>
</g>
</svg>
