<?xml version="1.0" encoding="utf-8"?>
<!-- Generator: Adobe Illustrator 24.1.1, SVG Export Plug-In . SVG Version: 6.00 Build 0)  -->
<svg version="1.1" id="Livello_1" xmlns="http://www.w3.org/2000/svg" xmlns:xlink="http://www.w3.org/1999/xlink" x="0px" y="0px"
	 viewBox="0 0 595.28 841.89" style="enable-background:new 0 0 595.28 841.89;" xml:space="preserve">
<style type="text/css">
	.st0{fill:#FFFFFF;}
</style>
<path class="st0" d="M74.62,307.5v27.67h8.65v-19.02h19.02v-8.65H74.62z M114.38,400.12c-5.98,0-10.83,4.85-10.83,10.83
	c0,5.98,4.85,10.83,10.83,10.83c5.98,0,10.83-4.85,10.83-10.83C125.21,404.97,120.37,400.12,114.38,400.12z M114.38,360
	c-5.98,0-10.83,4.85-10.83,10.83s4.85,10.83,10.83,10.83c5.98,0,10.83-4.85,10.83-10.83S120.37,360,114.38,360z M114.38,319.89
	c-5.98,0-10.83,4.85-10.83,10.83c0,5.98,4.85,10.83,10.83,10.83c5.98,0,10.83-4.85,10.83-10.83
	C125.21,324.73,120.37,319.89,114.38,319.89z M173.62,307.5v8.65h19.02v19.02h8.66V307.5H173.62z M192.63,406.5v19.02h-19.02v8.65
	h27.67V406.5H192.63z M161.52,319.89c-5.98,0-10.83,4.85-10.83,10.83c0,5.98,4.85,10.83,10.83,10.83c5.98,0,10.83-4.85,10.83-10.83
	C172.35,324.73,167.5,319.89,161.52,319.89z M161.52,360c-5.98,0-10.83,4.85-10.83,10.83s4.85,10.83,10.83,10.83
	c5.98,0,10.83-4.85,10.83-10.83S167.5,360,161.52,360z M161.52,400.12c-5.98,0-10.83,4.85-10.83,10.83
	c0,5.98,4.85,10.83,10.83,10.83c5.98,0,10.83-4.85,10.83-10.83C172.35,404.97,167.5,400.12,161.52,400.12z M83.27,425.52V406.5
	h-8.65v27.67h27.67v-8.65H83.27z"/>
<ellipse transform="matrix(0.2298 -0.9732 0.9732 0.2298 -311.8553 427.859)" class="st0" cx="114.38" cy="410.95" rx="10.83" ry="10.83"/>
<ellipse transform="matrix(0.7071 -0.7071 0.7071 0.7071 -228.717 189.4964)" class="st0" cx="114.38" cy="370.83" rx="10.83" ry="10.83"/>
<ellipse transform="matrix(0.2298 -0.9732 0.9732 0.2298 -233.7647 366.0567)" class="st0" cx="114.38" cy="330.72" rx="10.83" ry="10.83"/>
<path class="st0" d="M172.35,410.95c0,5.98-4.85,10.83-10.83,10.83c-5.98,0-10.83-4.85-10.83-10.83c0-5.98,4.85-10.83,10.83-10.83
	C167.5,400.12,172.35,404.97,172.35,410.95z"/>
<path class="st0" d="M172.35,370.83c0,5.98-4.85,10.83-10.83,10.83c-5.98,0-10.83-4.85-10.83-10.83S155.54,360,161.52,360
	C167.5,360,172.35,364.85,172.35,370.83z"/>
<path class="st0" d="M172.35,330.72c0,5.98-4.85,10.83-10.83,10.83c-5.98,0-10.83-4.85-10.83-10.83c0-5.98,4.85-10.83,10.83-10.83
	C167.5,319.89,172.35,324.73,172.35,330.72z"/>
<polygon class="st0" points="102.29,307.5 102.29,316.15 83.27,316.15 83.27,335.17 74.62,335.17 74.62,307.5 "/>
<polygon class="st0" points="102.29,425.52 102.29,434.17 74.62,434.17 74.62,406.5 83.27,406.5 83.27,425.52 "/>
<polygon class="st0" points="201.29,406.5 201.29,434.17 173.62,434.17 173.62,425.52 192.63,425.52 192.63,406.5 "/>
<polygon class="st0" points="201.29,307.5 201.29,335.17 192.63,335.17 192.63,316.15 173.62,316.15 173.62,307.5 "/>
<ellipse transform="matrix(0.2298 -0.9732 0.9732 0.2298 -311.8553 427.8588)" class="st0" cx="114.38" cy="410.95" rx="10.83" ry="10.83"/>
<ellipse transform="matrix(0.7071 -0.7071 0.7071 0.7071 -228.717 189.4964)" class="st0" cx="114.38" cy="370.83" rx="10.83" ry="10.83"/>
<ellipse transform="matrix(0.2298 -0.9732 0.9732 0.2298 -233.7647 366.0565)" class="st0" cx="114.38" cy="330.72" rx="10.83" ry="10.83"/>
<path class="st0" d="M172.35,410.95c0,5.98-4.85,10.83-10.83,10.83c-5.98,0-10.83-4.85-10.83-10.83c0-5.98,4.85-10.83,10.83-10.83
	C167.5,400.12,172.35,404.97,172.35,410.95z"/>
<path class="st0" d="M172.35,370.83c0,5.98-4.85,10.83-10.83,10.83c-5.98,0-10.83-4.85-10.83-10.83S155.54,360,161.52,360
	C167.5,360,172.35,364.85,172.35,370.83z"/>
<path class="st0" d="M172.35,330.72c0,5.98-4.85,10.83-10.83,10.83c-5.98,0-10.83-4.85-10.83-10.83c0-5.98,4.85-10.83,10.83-10.83
	C167.5,319.89,172.35,324.73,172.35,330.72z"/>
<ellipse transform="matrix(0.7071 -0.7071 0.7071 0.7071 -228.717 189.4964)" class="st0" cx="114.38" cy="370.83" rx="10.83" ry="10.83"/>
<path class="st0" d="M172.35,370.83c0,5.98-4.85,10.83-10.83,10.83c-5.98,0-10.83-4.85-10.83-10.83S155.54,360,161.52,360
	C167.5,360,172.35,364.85,172.35,370.83z"/>
<path class="st0" d="M172.35,410.95c0,5.98-4.85,10.83-10.83,10.83c-5.98,0-10.83-4.85-10.83-10.83c0-5.98,4.85-10.83,10.83-10.83
	C167.5,400.12,172.35,404.97,172.35,410.95z"/>
<path class="st0" d="M172.35,330.72c0,5.98-4.85,10.83-10.83,10.83c-5.98,0-10.83-4.85-10.83-10.83c0-5.98,4.85-10.83,10.83-10.83
	C167.5,319.89,172.35,324.73,172.35,330.72z"/>
<ellipse transform="matrix(0.2298 -0.9732 0.9732 0.2298 -311.8553 427.859)" class="st0" cx="114.38" cy="410.95" rx="10.83" ry="10.83"/>
<ellipse transform="matrix(0.2298 -0.9732 0.9732 0.2298 -233.7647 366.0567)" class="st0" cx="114.38" cy="330.72" rx="10.83" ry="10.83"/>
<g>
	<g>
		<path class="st0" d="M264.48,416.73v5.32h-25.14v-39.1h6.47v33.78H264.48z"/>
		<path class="st0" d="M290.61,418c-0.98,1.45-2.18,2.58-3.6,3.4c-1.41,0.81-3,1.22-4.75,1.22c-1.5,0-2.88-0.24-4.12-0.71
			c-1.24-0.47-2.31-1.21-3.21-2.22c-0.88-1-1.56-2.29-2.04-3.85c-0.48-1.57-0.73-3.44-0.73-5.63v-17.21h6.42v17.27
			c0,1.34,0.1,2.47,0.3,3.37c0.2,0.9,0.51,1.62,0.94,2.16c0.43,0.56,0.98,0.95,1.64,1.18c0.66,0.23,1.44,0.35,2.34,0.35
			c0.93,0,1.76-0.1,2.5-0.31c0.73-0.21,1.38-0.49,1.93-0.85c0.46-0.32,0.88-0.7,1.23-1.14c0.36-0.44,0.66-0.93,0.91-1.46v-20.57
			h6.45v29.06h-5.83L290.61,418z"/>
		<path class="st0" d="M319.92,417.07c0.74-0.24,1.4-0.59,1.97-1.03c0.55-0.45,1-0.98,1.33-1.58c0.33-0.61,0.5-1.28,0.5-2.01h6.04
			c0.02,1.41-0.3,2.74-0.95,3.99c-0.65,1.24-1.54,2.31-2.64,3.21c-1.13,0.93-2.42,1.66-3.88,2.19c-1.46,0.53-2.99,0.79-4.61,0.79
			c-2.24,0-4.19-0.39-5.87-1.17c-1.67-0.78-3.07-1.83-4.18-3.16c-1.13-1.32-1.98-2.87-2.55-4.63c-0.57-1.76-0.86-3.65-0.86-5.65
			v-0.94c0-1.99,0.28-3.87,0.85-5.64c0.56-1.77,1.41-3.32,2.54-4.65c1.13-1.32,2.53-2.38,4.2-3.16c1.67-0.78,3.62-1.17,5.84-1.17
			c1.75,0,3.38,0.27,4.87,0.81s2.78,1.29,3.85,2.26s1.91,2.12,2.51,3.46c0.6,1.34,0.89,2.82,0.87,4.43h-6.04
			c0-0.79-0.15-1.53-0.44-2.23c-0.29-0.7-0.71-1.31-1.25-1.83c-0.55-0.52-1.21-0.93-1.97-1.24c-0.76-0.3-1.58-0.46-2.46-0.46
			c-1.34,0-2.46,0.27-3.34,0.82c-0.89,0.55-1.59,1.26-2.11,2.13c-0.55,0.88-0.94,1.88-1.17,3.01s-0.34,2.27-0.34,3.44v0.94
			c0,1.18,0.11,2.34,0.34,3.48c0.22,1.14,0.6,2.13,1.14,2.99c0.52,0.9,1.23,1.61,2.12,2.15c0.89,0.54,2.01,0.81,3.36,0.81
			C318.4,417.43,319.18,417.31,319.92,417.07z"/>
		<path class="st0" d="M344.45,412.71v9.35h-6.45V380.8h6.45v24.28l2.66-2.95l8.67-9.13h7.73l-11.31,12.11l12.94,16.95h-7.95
			l-9.27-12.65L344.45,412.71z"/>
		<path class="st0" d="M372.83,433.64c-0.56-0.1-1.11-0.21-1.63-0.34l0.89-5.02c0.36,0.02,0.76,0.04,1.22,0.07
			c0.46,0.03,0.83,0.04,1.11,0.04c0.63,0,1.19-0.18,1.69-0.55c0.5-0.37,0.94-0.78,1.32-1.25c0.36-0.47,0.65-0.88,0.87-1.24
			c0.22-0.36,0.43-0.73,0.63-1.13l1.83-3.46l-12.38-27.77h7.06l7.22,17.75l0.99,3.2l1.21-3.12l7.01-17.83H399l-14.74,33.46
			c-0.34,0.75-0.77,1.55-1.28,2.4c-0.51,0.85-1.15,1.63-1.92,2.35c-0.77,0.73-1.68,1.35-2.74,1.84c-1.06,0.49-2.29,0.74-3.71,0.74
			C373.99,433.79,373.39,433.74,372.83,433.64z"/>
		<path class="st0" d="M443.33,406.88v15.17h-6.45v-39.1h12.41c2.02,0.02,3.88,0.28,5.59,0.78c1.7,0.5,3.17,1.24,4.4,2.2
			c1.22,0.98,2.17,2.21,2.85,3.67c0.68,1.46,1.02,3.17,1.02,5.12c0,1.34-0.17,2.56-0.52,3.65c-0.35,1.09-0.84,2.08-1.46,2.95
			c-0.63,0.88-1.38,1.65-2.26,2.31c-0.88,0.66-1.85,1.24-2.93,1.72l8.35,16.35v0.35h-6.9l-7.49-15.17H443.33z M449.38,401.61
			c1.15-0.02,2.18-0.19,3.1-0.52c0.92-0.33,1.71-0.81,2.35-1.44c0.57-0.54,1.02-1.2,1.34-1.99c0.32-0.79,0.48-1.68,0.48-2.69
			c0-1.13-0.17-2.12-0.52-2.97c-0.35-0.85-0.86-1.56-1.54-2.13c-0.63-0.54-1.39-0.94-2.28-1.22c-0.9-0.28-1.9-0.43-3.01-0.44h-5.96
			v13.4H449.38z"/>
		<path class="st0" d="M469.71,401.39c0.61-1.8,1.49-3.36,2.66-4.69c1.15-1.32,2.55-2.36,4.22-3.12c1.66-0.75,3.56-1.13,5.69-1.13
			c2.13,0,4.03,0.38,5.71,1.13s3.09,1.79,4.26,3.12c1.15,1.33,2.02,2.89,2.63,4.69c0.61,1.8,0.91,3.76,0.91,5.87v0.56
			c0,2.13-0.3,4.09-0.91,5.88c-0.61,1.79-1.49,3.35-2.63,4.67c-1.15,1.33-2.56,2.36-4.23,3.12c-1.67,0.75-3.57,1.13-5.68,1.13
			c-2.13,0-4.04-0.38-5.72-1.13s-3.1-1.79-4.24-3.12c-1.16-1.32-2.05-2.88-2.66-4.67c-0.61-1.79-0.91-3.75-0.91-5.88v-0.56
			C468.79,405.14,469.1,403.19,469.71,401.39z M475.63,411.52c0.28,1.16,0.71,2.18,1.3,3.06c0.57,0.88,1.31,1.57,2.2,2.08
			c0.9,0.51,1.96,0.77,3.2,0.77c1.2,0,2.25-0.25,3.14-0.77c0.9-0.51,1.63-1.2,2.2-2.08c0.57-0.88,1-1.9,1.28-3.06
			c0.28-1.16,0.42-2.4,0.42-3.71v-0.56c0-1.27-0.14-2.49-0.43-3.65c-0.29-1.16-0.71-2.18-1.26-3.06c-0.59-0.88-1.33-1.58-2.22-2.09
			c-0.89-0.52-1.95-0.78-3.18-0.78c-1.22,0-2.27,0.26-3.16,0.78c-0.89,0.52-1.62,1.22-2.19,2.09c-0.59,0.88-1.03,1.9-1.3,3.06
			c-0.28,1.16-0.42,2.38-0.42,3.65v0.56C475.21,409.13,475.35,410.36,475.63,411.52z"/>
		<path class="st0" d="M519.87,380.8v35.93h8.81v5.32h-24.46v-5.32h9.18v-30.59h-9.18v-5.34H519.87z"/>
		<path class="st0" d="M552.88,380.8v35.93h8.81v5.32h-24.46v-5.32h9.18v-30.59h-9.18v-5.34H552.88z"/>
	</g>
</g>
</svg>
